<mxfile host="app.diagrams.net" agent="Mozilla/5.0 (Windows NT 10.0; Win64; x64) AppleWebKit/537.36 (KHTML, like Gecko) Chrome/129.0.0.0 Safari/537.36" version="24.7.16">
  <diagram name="Trang-1" id="qcFNsDO8frQkDNvJiyGB">
    <mxGraphModel dx="2200" dy="1170" grid="1" gridSize="10" guides="1" tooltips="1" connect="1" arrows="1" fold="1" page="1" pageScale="1" pageWidth="2000" pageHeight="3000" math="0" shadow="0">
      <root>
        <mxCell id="0" />
        <mxCell id="1" parent="0" />
        <mxCell id="7G_IvZ2n9mC5iAlq--vm-209" value="" style="rounded=0;whiteSpace=wrap;html=1;dashed=1;movable=0;resizable=0;rotatable=0;deletable=0;editable=0;locked=1;connectable=0;strokeWidth=2;" vertex="1" parent="1">
          <mxGeometry x="1210" y="280" width="80" height="180" as="geometry" />
        </mxCell>
        <mxCell id="7G_IvZ2n9mC5iAlq--vm-208" value="" style="rounded=0;whiteSpace=wrap;html=1;dashed=1;movable=0;resizable=0;rotatable=0;deletable=0;editable=0;locked=1;connectable=0;strokeWidth=2;" vertex="1" parent="1">
          <mxGeometry x="1065" y="280" width="115" height="180" as="geometry" />
        </mxCell>
        <mxCell id="7G_IvZ2n9mC5iAlq--vm-207" value="" style="rounded=0;whiteSpace=wrap;html=1;dashed=1;movable=0;resizable=0;rotatable=0;deletable=0;editable=0;locked=1;connectable=0;strokeWidth=2;" vertex="1" parent="1">
          <mxGeometry x="700" y="280" width="340" height="180" as="geometry" />
        </mxCell>
        <mxCell id="7G_IvZ2n9mC5iAlq--vm-206" value="" style="rounded=0;whiteSpace=wrap;html=1;dashed=1;movable=0;resizable=0;rotatable=0;deletable=0;editable=0;locked=1;connectable=0;strokeWidth=2;" vertex="1" parent="1">
          <mxGeometry x="450" y="280" width="220" height="180" as="geometry" />
        </mxCell>
        <mxCell id="7G_IvZ2n9mC5iAlq--vm-205" value="" style="rounded=0;whiteSpace=wrap;html=1;dashed=1;movable=0;resizable=0;rotatable=0;deletable=0;editable=0;locked=1;connectable=0;strokeWidth=2;" vertex="1" parent="1">
          <mxGeometry x="80" y="280" width="340" height="180" as="geometry" />
        </mxCell>
        <mxCell id="7G_IvZ2n9mC5iAlq--vm-13" value="" style="endArrow=none;html=1;rounded=0;movable=0;resizable=0;rotatable=0;deletable=0;editable=0;locked=1;connectable=0;strokeWidth=2;" edge="1" parent="1">
          <mxGeometry width="50" height="50" relative="1" as="geometry">
            <mxPoint x="230" y="410" as="sourcePoint" />
            <mxPoint x="230" y="350" as="targetPoint" />
          </mxGeometry>
        </mxCell>
        <mxCell id="7G_IvZ2n9mC5iAlq--vm-14" value="" style="endArrow=none;html=1;rounded=0;movable=0;resizable=0;rotatable=0;deletable=0;editable=0;locked=1;connectable=0;strokeWidth=2;" edge="1" parent="1">
          <mxGeometry width="50" height="50" relative="1" as="geometry">
            <mxPoint x="230" y="350" as="sourcePoint" />
            <mxPoint x="250" y="360" as="targetPoint" />
          </mxGeometry>
        </mxCell>
        <mxCell id="7G_IvZ2n9mC5iAlq--vm-15" value="" style="endArrow=none;html=1;rounded=0;movable=0;resizable=0;rotatable=0;deletable=0;editable=0;locked=1;connectable=0;strokeWidth=2;" edge="1" parent="1">
          <mxGeometry width="50" height="50" relative="1" as="geometry">
            <mxPoint x="230" y="410" as="sourcePoint" />
            <mxPoint x="250" y="400" as="targetPoint" />
          </mxGeometry>
        </mxCell>
        <mxCell id="7G_IvZ2n9mC5iAlq--vm-16" value="" style="endArrow=none;html=1;rounded=0;movable=0;resizable=0;rotatable=0;deletable=0;editable=0;locked=1;connectable=0;strokeWidth=2;" edge="1" parent="1">
          <mxGeometry width="50" height="50" relative="1" as="geometry">
            <mxPoint x="250" y="400" as="sourcePoint" />
            <mxPoint x="250" y="360" as="targetPoint" />
          </mxGeometry>
        </mxCell>
        <mxCell id="7G_IvZ2n9mC5iAlq--vm-17" value="" style="endArrow=none;html=1;rounded=0;movable=0;resizable=0;rotatable=0;deletable=0;editable=0;locked=1;connectable=0;strokeWidth=2;" edge="1" parent="1">
          <mxGeometry width="50" height="50" relative="1" as="geometry">
            <mxPoint x="190" y="360" as="sourcePoint" />
            <mxPoint x="230" y="360" as="targetPoint" />
          </mxGeometry>
        </mxCell>
        <mxCell id="7G_IvZ2n9mC5iAlq--vm-18" value="" style="endArrow=none;html=1;rounded=0;movable=0;resizable=0;rotatable=0;deletable=0;editable=0;locked=1;connectable=0;strokeWidth=2;" edge="1" parent="1">
          <mxGeometry width="50" height="50" relative="1" as="geometry">
            <mxPoint x="210" y="380" as="sourcePoint" />
            <mxPoint x="230" y="380" as="targetPoint" />
          </mxGeometry>
        </mxCell>
        <mxCell id="7G_IvZ2n9mC5iAlq--vm-19" value="" style="endArrow=none;html=1;rounded=0;movable=0;resizable=0;rotatable=0;deletable=0;editable=0;locked=1;connectable=0;strokeWidth=2;" edge="1" parent="1">
          <mxGeometry width="50" height="50" relative="1" as="geometry">
            <mxPoint x="210" y="400" as="sourcePoint" />
            <mxPoint x="230" y="400" as="targetPoint" />
          </mxGeometry>
        </mxCell>
        <mxCell id="7G_IvZ2n9mC5iAlq--vm-20" value="PC" style="rounded=0;whiteSpace=wrap;html=1;fontStyle=1;movable=0;resizable=0;rotatable=0;deletable=0;editable=0;locked=1;connectable=0;strokeColor=#4be713;strokeWidth=2;" vertex="1" parent="1">
          <mxGeometry x="280" y="350" width="40" height="60" as="geometry" />
        </mxCell>
        <mxCell id="7G_IvZ2n9mC5iAlq--vm-21" value="IMEM" style="rounded=0;whiteSpace=wrap;html=1;fontStyle=1;movable=0;resizable=0;rotatable=0;deletable=0;editable=0;locked=1;connectable=0;strokeColor=#4be713;strokeWidth=2;" vertex="1" parent="1">
          <mxGeometry x="350" y="355" width="50" height="50" as="geometry" />
        </mxCell>
        <mxCell id="7G_IvZ2n9mC5iAlq--vm-22" value="" style="rounded=0;whiteSpace=wrap;html=1;fillColor=#440dab;movable=0;resizable=0;rotatable=0;deletable=0;editable=0;locked=1;connectable=0;strokeWidth=2;" vertex="1" parent="1">
          <mxGeometry x="430" y="290" width="10" height="160" as="geometry" />
        </mxCell>
        <mxCell id="7G_IvZ2n9mC5iAlq--vm-23" value="" style="triangle;whiteSpace=wrap;html=1;rotation=-180;movable=0;resizable=0;rotatable=0;deletable=0;editable=0;locked=1;connectable=0;strokeWidth=2;" vertex="1" parent="1">
          <mxGeometry x="280" y="288" width="30" height="30" as="geometry" />
        </mxCell>
        <mxCell id="7G_IvZ2n9mC5iAlq--vm-24" value="" style="endArrow=none;html=1;rounded=0;entryX=0;entryY=0.5;entryDx=0;entryDy=0;movable=0;resizable=0;rotatable=0;deletable=0;editable=0;locked=1;connectable=0;strokeWidth=2;" edge="1" parent="1" target="7G_IvZ2n9mC5iAlq--vm-21">
          <mxGeometry width="50" height="50" relative="1" as="geometry">
            <mxPoint x="320" y="380" as="sourcePoint" />
            <mxPoint x="370" y="330" as="targetPoint" />
          </mxGeometry>
        </mxCell>
        <mxCell id="7G_IvZ2n9mC5iAlq--vm-25" value="" style="endArrow=none;html=1;rounded=0;movable=0;resizable=0;rotatable=0;deletable=0;editable=0;locked=1;connectable=0;strokeWidth=2;" edge="1" parent="1">
          <mxGeometry width="50" height="50" relative="1" as="geometry">
            <mxPoint x="310" y="310" as="sourcePoint" />
            <mxPoint x="340" y="310" as="targetPoint" />
          </mxGeometry>
        </mxCell>
        <mxCell id="7G_IvZ2n9mC5iAlq--vm-26" value="" style="endArrow=none;html=1;rounded=0;movable=0;resizable=0;rotatable=0;deletable=0;editable=0;locked=1;connectable=0;strokeWidth=2;" edge="1" parent="1">
          <mxGeometry width="50" height="50" relative="1" as="geometry">
            <mxPoint x="340" y="380" as="sourcePoint" />
            <mxPoint x="340" y="310" as="targetPoint" />
          </mxGeometry>
        </mxCell>
        <mxCell id="7G_IvZ2n9mC5iAlq--vm-27" value="" style="endArrow=none;html=1;rounded=0;movable=0;resizable=0;rotatable=0;deletable=0;editable=0;locked=1;connectable=0;strokeWidth=2;" edge="1" parent="1">
          <mxGeometry width="50" height="50" relative="1" as="geometry">
            <mxPoint x="310" y="300" as="sourcePoint" />
            <mxPoint x="340" y="300" as="targetPoint" />
          </mxGeometry>
        </mxCell>
        <mxCell id="7G_IvZ2n9mC5iAlq--vm-28" value="4" style="text;html=1;align=center;verticalAlign=middle;resizable=0;points=[];autosize=1;strokeColor=none;fillColor=none;movable=0;rotatable=0;deletable=0;editable=0;locked=1;connectable=0;strokeWidth=2;" vertex="1" parent="1">
          <mxGeometry x="310" y="280" width="30" height="30" as="geometry" />
        </mxCell>
        <mxCell id="7G_IvZ2n9mC5iAlq--vm-29" value="" style="endArrow=none;html=1;rounded=0;entryX=0;entryY=0.563;entryDx=0;entryDy=0;entryPerimeter=0;movable=0;resizable=0;rotatable=0;deletable=0;editable=0;locked=1;connectable=0;strokeWidth=2;" edge="1" parent="1" target="7G_IvZ2n9mC5iAlq--vm-22">
          <mxGeometry width="50" height="50" relative="1" as="geometry">
            <mxPoint x="400" y="380" as="sourcePoint" />
            <mxPoint x="450" y="330" as="targetPoint" />
          </mxGeometry>
        </mxCell>
        <mxCell id="7G_IvZ2n9mC5iAlq--vm-30" value="" style="endArrow=none;html=1;rounded=0;entryX=0;entryY=0.5;entryDx=0;entryDy=0;movable=0;resizable=0;rotatable=0;deletable=0;editable=0;locked=1;connectable=0;strokeWidth=2;" edge="1" parent="1" target="7G_IvZ2n9mC5iAlq--vm-20">
          <mxGeometry width="50" height="50" relative="1" as="geometry">
            <mxPoint x="250" y="380" as="sourcePoint" />
            <mxPoint x="300" y="330" as="targetPoint" />
          </mxGeometry>
        </mxCell>
        <mxCell id="7G_IvZ2n9mC5iAlq--vm-31" value="predicted_pc" style="text;html=1;align=center;verticalAlign=middle;resizable=0;points=[];autosize=1;strokeColor=none;fillColor=none;movable=0;rotatable=0;deletable=0;editable=0;locked=1;connectable=0;strokeWidth=2;" vertex="1" parent="1">
          <mxGeometry x="80" y="348" width="90" height="30" as="geometry" />
        </mxCell>
        <mxCell id="7G_IvZ2n9mC5iAlq--vm-32" value="" style="endArrow=none;html=1;rounded=0;movable=0;resizable=0;rotatable=0;deletable=0;editable=0;locked=1;connectable=0;strokeWidth=2;" edge="1" parent="1">
          <mxGeometry width="50" height="50" relative="1" as="geometry">
            <mxPoint x="150" y="350" as="sourcePoint" />
            <mxPoint x="150" y="310" as="targetPoint" />
          </mxGeometry>
        </mxCell>
        <mxCell id="7G_IvZ2n9mC5iAlq--vm-33" value="" style="endArrow=none;html=1;rounded=0;entryX=1;entryY=0.5;entryDx=0;entryDy=0;movable=0;resizable=0;rotatable=0;deletable=0;editable=0;locked=1;connectable=0;strokeWidth=2;" edge="1" parent="1" target="7G_IvZ2n9mC5iAlq--vm-23">
          <mxGeometry width="50" height="50" relative="1" as="geometry">
            <mxPoint x="150" y="310" as="sourcePoint" />
            <mxPoint x="200" y="260" as="targetPoint" />
          </mxGeometry>
        </mxCell>
        <mxCell id="7G_IvZ2n9mC5iAlq--vm-34" value="pc4" style="text;html=1;align=center;verticalAlign=middle;resizable=0;points=[];autosize=1;strokeColor=none;fillColor=none;movable=0;rotatable=0;deletable=0;editable=0;locked=1;connectable=0;strokeWidth=2;" vertex="1" parent="1">
          <mxGeometry x="200" y="280" width="40" height="30" as="geometry" />
        </mxCell>
        <mxCell id="7G_IvZ2n9mC5iAlq--vm-35" value="" style="endArrow=none;html=1;rounded=0;movable=0;resizable=0;rotatable=0;deletable=0;editable=0;locked=1;connectable=0;strokeWidth=2;" edge="1" parent="1">
          <mxGeometry width="50" height="50" relative="1" as="geometry">
            <mxPoint x="240" y="340" as="sourcePoint" />
            <mxPoint x="240" y="355" as="targetPoint" />
          </mxGeometry>
        </mxCell>
        <mxCell id="7G_IvZ2n9mC5iAlq--vm-36" value="wrong_predicted" style="text;html=1;align=center;verticalAlign=middle;resizable=0;points=[];autosize=1;strokeColor=none;fillColor=none;movable=0;rotatable=0;deletable=0;editable=0;locked=1;connectable=0;strokeWidth=2;" vertex="1" parent="1">
          <mxGeometry x="190" y="318" width="110" height="30" as="geometry" />
        </mxCell>
        <mxCell id="7G_IvZ2n9mC5iAlq--vm-37" value="mispredicted_pc" style="text;html=1;align=center;verticalAlign=middle;resizable=0;points=[];autosize=1;strokeColor=none;fillColor=none;movable=0;rotatable=0;deletable=0;editable=0;locked=1;connectable=0;strokeWidth=2;" vertex="1" parent="1">
          <mxGeometry x="120" y="378" width="110" height="30" as="geometry" />
        </mxCell>
        <mxCell id="7G_IvZ2n9mC5iAlq--vm-40" value="hit" style="text;html=1;align=center;verticalAlign=middle;resizable=0;points=[];autosize=1;strokeColor=none;fillColor=none;movable=0;rotatable=0;deletable=0;editable=0;locked=1;connectable=0;strokeWidth=2;" vertex="1" parent="1">
          <mxGeometry x="160" y="300" width="40" height="30" as="geometry" />
        </mxCell>
        <mxCell id="7G_IvZ2n9mC5iAlq--vm-41" value="Reg File" style="rounded=0;whiteSpace=wrap;html=1;fontStyle=1;movable=0;resizable=0;rotatable=0;deletable=0;editable=0;locked=1;connectable=0;strokeColor=#4be713;strokeWidth=2;" vertex="1" parent="1">
          <mxGeometry x="480" y="318" width="60" height="70" as="geometry" />
        </mxCell>
        <mxCell id="7G_IvZ2n9mC5iAlq--vm-42" value="ImmGen" style="rounded=1;whiteSpace=wrap;html=1;fontStyle=1;movable=0;resizable=0;rotatable=0;deletable=0;editable=0;locked=1;connectable=0;strokeColor=#4be713;strokeWidth=2;" vertex="1" parent="1">
          <mxGeometry x="590" y="370" width="60" height="38" as="geometry" />
        </mxCell>
        <mxCell id="7G_IvZ2n9mC5iAlq--vm-43" value="Control unit" style="rounded=0;whiteSpace=wrap;html=1;fontStyle=1;movable=0;resizable=0;rotatable=0;deletable=0;editable=0;locked=1;connectable=0;strokeColor=#4be713;strokeWidth=2;" vertex="1" parent="1">
          <mxGeometry x="500" y="420" width="130" height="30" as="geometry" />
        </mxCell>
        <mxCell id="7G_IvZ2n9mC5iAlq--vm-44" value="" style="endArrow=none;html=1;rounded=0;entryX=0;entryY=0.75;entryDx=0;entryDy=0;exitX=0.96;exitY=0.676;exitDx=0;exitDy=0;exitPerimeter=0;movable=0;resizable=0;rotatable=0;deletable=0;editable=0;locked=1;connectable=0;strokeWidth=2;" edge="1" parent="1" source="7G_IvZ2n9mC5iAlq--vm-22" target="7G_IvZ2n9mC5iAlq--vm-42">
          <mxGeometry width="50" height="50" relative="1" as="geometry">
            <mxPoint x="440" y="408" as="sourcePoint" />
            <mxPoint x="490" y="358" as="targetPoint" />
          </mxGeometry>
        </mxCell>
        <mxCell id="7G_IvZ2n9mC5iAlq--vm-45" value="" style="endArrow=none;html=1;rounded=0;entryX=0;entryY=0.5;entryDx=0;entryDy=0;exitX=1;exitY=0.906;exitDx=0;exitDy=0;exitPerimeter=0;movable=0;resizable=0;rotatable=0;deletable=0;editable=0;locked=1;connectable=0;strokeWidth=2;" edge="1" parent="1" source="7G_IvZ2n9mC5iAlq--vm-22" target="7G_IvZ2n9mC5iAlq--vm-43">
          <mxGeometry width="50" height="50" relative="1" as="geometry">
            <mxPoint x="440" y="438" as="sourcePoint" />
            <mxPoint x="490" y="388" as="targetPoint" />
          </mxGeometry>
        </mxCell>
        <mxCell id="7G_IvZ2n9mC5iAlq--vm-46" value="" style="endArrow=none;html=1;rounded=0;entryX=0;entryY=0.314;entryDx=0;entryDy=0;entryPerimeter=0;movable=0;resizable=0;rotatable=0;deletable=0;editable=0;locked=1;connectable=0;strokeWidth=2;" edge="1" parent="1" target="7G_IvZ2n9mC5iAlq--vm-41">
          <mxGeometry width="50" height="50" relative="1" as="geometry">
            <mxPoint x="440" y="340" as="sourcePoint" />
            <mxPoint x="490" y="290" as="targetPoint" />
          </mxGeometry>
        </mxCell>
        <mxCell id="7G_IvZ2n9mC5iAlq--vm-47" value="rs1" style="text;html=1;align=center;verticalAlign=middle;resizable=0;points=[];autosize=1;strokeColor=none;fillColor=none;movable=0;rotatable=0;deletable=0;editable=0;locked=1;connectable=0;strokeWidth=2;" vertex="1" parent="1">
          <mxGeometry x="440" y="318" width="40" height="30" as="geometry" />
        </mxCell>
        <mxCell id="7G_IvZ2n9mC5iAlq--vm-48" value="" style="endArrow=none;html=1;rounded=0;entryX=0;entryY=0.75;entryDx=0;entryDy=0;movable=0;resizable=0;rotatable=0;deletable=0;editable=0;locked=1;connectable=0;strokeWidth=2;" edge="1" parent="1" target="7G_IvZ2n9mC5iAlq--vm-41">
          <mxGeometry width="50" height="50" relative="1" as="geometry">
            <mxPoint x="440" y="370" as="sourcePoint" />
            <mxPoint x="490" y="320" as="targetPoint" />
          </mxGeometry>
        </mxCell>
        <mxCell id="7G_IvZ2n9mC5iAlq--vm-49" value="rs2" style="text;html=1;align=center;verticalAlign=middle;resizable=0;points=[];autosize=1;strokeColor=none;fillColor=none;movable=0;rotatable=0;deletable=0;editable=0;locked=1;connectable=0;strokeWidth=2;" vertex="1" parent="1">
          <mxGeometry x="440" y="348" width="40" height="30" as="geometry" />
        </mxCell>
        <mxCell id="7G_IvZ2n9mC5iAlq--vm-50" value="" style="rounded=0;whiteSpace=wrap;html=1;fillColor=#440dab;movable=0;resizable=0;rotatable=0;deletable=0;editable=0;locked=1;connectable=0;strokeWidth=2;" vertex="1" parent="1">
          <mxGeometry x="680" y="290" width="10" height="160" as="geometry" />
        </mxCell>
        <mxCell id="7G_IvZ2n9mC5iAlq--vm-51" value="" style="endArrow=none;html=1;rounded=0;entryX=0;entryY=0.25;entryDx=0;entryDy=0;movable=0;resizable=0;rotatable=0;deletable=0;editable=0;locked=1;connectable=0;strokeWidth=2;" edge="1" parent="1" target="7G_IvZ2n9mC5iAlq--vm-50">
          <mxGeometry width="50" height="50" relative="1" as="geometry">
            <mxPoint x="540" y="330" as="sourcePoint" />
            <mxPoint x="590" y="280" as="targetPoint" />
          </mxGeometry>
        </mxCell>
        <mxCell id="7G_IvZ2n9mC5iAlq--vm-52" value="" style="endArrow=none;html=1;rounded=0;entryX=0;entryY=0.438;entryDx=0;entryDy=0;entryPerimeter=0;movable=0;resizable=0;rotatable=0;deletable=0;editable=0;locked=1;connectable=0;strokeWidth=2;" edge="1" parent="1" target="7G_IvZ2n9mC5iAlq--vm-50">
          <mxGeometry width="50" height="50" relative="1" as="geometry">
            <mxPoint x="540" y="360" as="sourcePoint" />
            <mxPoint x="590" y="310" as="targetPoint" />
          </mxGeometry>
        </mxCell>
        <mxCell id="7G_IvZ2n9mC5iAlq--vm-53" value="rs1" style="text;html=1;align=center;verticalAlign=middle;resizable=0;points=[];autosize=1;strokeColor=none;fillColor=none;movable=0;rotatable=0;deletable=0;editable=0;locked=1;connectable=0;strokeWidth=2;" vertex="1" parent="1">
          <mxGeometry x="550" y="310" width="40" height="30" as="geometry" />
        </mxCell>
        <mxCell id="7G_IvZ2n9mC5iAlq--vm-54" value="rs2" style="text;html=1;align=center;verticalAlign=middle;resizable=0;points=[];autosize=1;strokeColor=none;fillColor=none;movable=0;rotatable=0;deletable=0;editable=0;locked=1;connectable=0;strokeWidth=2;" vertex="1" parent="1">
          <mxGeometry x="550" y="338" width="40" height="30" as="geometry" />
        </mxCell>
        <mxCell id="7G_IvZ2n9mC5iAlq--vm-55" value="" style="endArrow=none;html=1;rounded=0;movable=0;resizable=0;rotatable=0;deletable=0;editable=0;locked=1;connectable=0;strokeWidth=2;" edge="1" parent="1">
          <mxGeometry width="50" height="50" relative="1" as="geometry">
            <mxPoint x="650" y="390" as="sourcePoint" />
            <mxPoint x="680" y="390" as="targetPoint" />
          </mxGeometry>
        </mxCell>
        <mxCell id="7G_IvZ2n9mC5iAlq--vm-56" value="" style="endArrow=none;html=1;rounded=0;entryX=0;entryY=0.925;entryDx=0;entryDy=0;entryPerimeter=0;movable=0;resizable=0;rotatable=0;deletable=0;editable=0;locked=1;connectable=0;strokeWidth=2;" edge="1" parent="1" target="7G_IvZ2n9mC5iAlq--vm-50">
          <mxGeometry width="50" height="50" relative="1" as="geometry">
            <mxPoint x="630" y="438" as="sourcePoint" />
            <mxPoint x="680" y="388" as="targetPoint" />
          </mxGeometry>
        </mxCell>
        <mxCell id="7G_IvZ2n9mC5iAlq--vm-57" value="BrComp" style="rounded=1;whiteSpace=wrap;html=1;fontStyle=1;movable=0;resizable=0;rotatable=0;deletable=0;editable=0;locked=1;connectable=0;strokeColor=#4be713;strokeWidth=2;" vertex="1" parent="1">
          <mxGeometry x="710" y="345" width="70" height="50" as="geometry" />
        </mxCell>
        <mxCell id="7G_IvZ2n9mC5iAlq--vm-58" value="" style="endArrow=none;html=1;rounded=0;movable=0;resizable=0;rotatable=0;deletable=0;editable=0;locked=1;connectable=0;strokeWidth=2;" edge="1" parent="1">
          <mxGeometry width="50" height="50" relative="1" as="geometry">
            <mxPoint x="850" y="360" as="sourcePoint" />
            <mxPoint x="850" y="300" as="targetPoint" />
          </mxGeometry>
        </mxCell>
        <mxCell id="7G_IvZ2n9mC5iAlq--vm-59" value="" style="endArrow=none;html=1;rounded=0;movable=0;resizable=0;rotatable=0;deletable=0;editable=0;locked=1;connectable=0;strokeWidth=2;" edge="1" parent="1">
          <mxGeometry width="50" height="50" relative="1" as="geometry">
            <mxPoint x="850" y="300" as="sourcePoint" />
            <mxPoint x="870" y="310" as="targetPoint" />
          </mxGeometry>
        </mxCell>
        <mxCell id="7G_IvZ2n9mC5iAlq--vm-60" value="" style="endArrow=none;html=1;rounded=0;movable=0;resizable=0;rotatable=0;deletable=0;editable=0;locked=1;connectable=0;strokeWidth=2;" edge="1" parent="1">
          <mxGeometry width="50" height="50" relative="1" as="geometry">
            <mxPoint x="850" y="360" as="sourcePoint" />
            <mxPoint x="870" y="350" as="targetPoint" />
          </mxGeometry>
        </mxCell>
        <mxCell id="7G_IvZ2n9mC5iAlq--vm-61" value="" style="endArrow=none;html=1;rounded=0;movable=0;resizable=0;rotatable=0;deletable=0;editable=0;locked=1;connectable=0;strokeWidth=2;" edge="1" parent="1">
          <mxGeometry width="50" height="50" relative="1" as="geometry">
            <mxPoint x="870" y="350" as="sourcePoint" />
            <mxPoint x="870" y="310" as="targetPoint" />
          </mxGeometry>
        </mxCell>
        <mxCell id="7G_IvZ2n9mC5iAlq--vm-62" value="" style="endArrow=none;html=1;rounded=0;movable=0;resizable=0;rotatable=0;deletable=0;editable=0;locked=1;connectable=0;strokeWidth=2;" edge="1" parent="1">
          <mxGeometry width="50" height="50" relative="1" as="geometry">
            <mxPoint x="830" y="330" as="sourcePoint" />
            <mxPoint x="850" y="330" as="targetPoint" />
          </mxGeometry>
        </mxCell>
        <mxCell id="7G_IvZ2n9mC5iAlq--vm-63" value="" style="endArrow=none;html=1;rounded=0;movable=0;resizable=0;rotatable=0;deletable=0;editable=0;locked=1;connectable=0;strokeWidth=2;" edge="1" parent="1">
          <mxGeometry width="50" height="50" relative="1" as="geometry">
            <mxPoint x="830" y="350" as="sourcePoint" />
            <mxPoint x="850" y="350" as="targetPoint" />
          </mxGeometry>
        </mxCell>
        <mxCell id="7G_IvZ2n9mC5iAlq--vm-64" value="" style="endArrow=none;html=1;rounded=0;movable=0;resizable=0;rotatable=0;deletable=0;editable=0;locked=1;connectable=0;strokeWidth=2;" edge="1" parent="1">
          <mxGeometry width="50" height="50" relative="1" as="geometry">
            <mxPoint x="860" y="290" as="sourcePoint" />
            <mxPoint x="860" y="305" as="targetPoint" />
          </mxGeometry>
        </mxCell>
        <mxCell id="7G_IvZ2n9mC5iAlq--vm-65" value="" style="endArrow=none;html=1;rounded=0;movable=0;resizable=0;rotatable=0;deletable=0;editable=0;locked=1;connectable=0;strokeWidth=2;" edge="1" parent="1">
          <mxGeometry width="50" height="50" relative="1" as="geometry">
            <mxPoint x="830" y="310" as="sourcePoint" />
            <mxPoint x="850" y="310" as="targetPoint" />
          </mxGeometry>
        </mxCell>
        <mxCell id="7G_IvZ2n9mC5iAlq--vm-66" value="" style="endArrow=none;html=1;rounded=0;movable=0;resizable=0;rotatable=0;deletable=0;editable=0;locked=1;connectable=0;strokeWidth=2;" edge="1" parent="1">
          <mxGeometry width="50" height="50" relative="1" as="geometry">
            <mxPoint x="850" y="458" as="sourcePoint" />
            <mxPoint x="850" y="398" as="targetPoint" />
          </mxGeometry>
        </mxCell>
        <mxCell id="7G_IvZ2n9mC5iAlq--vm-67" value="" style="endArrow=none;html=1;rounded=0;movable=0;resizable=0;rotatable=0;deletable=0;editable=0;locked=1;connectable=0;strokeWidth=2;" edge="1" parent="1">
          <mxGeometry width="50" height="50" relative="1" as="geometry">
            <mxPoint x="850" y="398" as="sourcePoint" />
            <mxPoint x="870" y="408" as="targetPoint" />
          </mxGeometry>
        </mxCell>
        <mxCell id="7G_IvZ2n9mC5iAlq--vm-68" value="" style="endArrow=none;html=1;rounded=0;movable=0;resizable=0;rotatable=0;deletable=0;editable=0;locked=1;connectable=0;strokeWidth=2;" edge="1" parent="1">
          <mxGeometry width="50" height="50" relative="1" as="geometry">
            <mxPoint x="850" y="458" as="sourcePoint" />
            <mxPoint x="870" y="448" as="targetPoint" />
          </mxGeometry>
        </mxCell>
        <mxCell id="7G_IvZ2n9mC5iAlq--vm-69" value="" style="endArrow=none;html=1;rounded=0;movable=0;resizable=0;rotatable=0;deletable=0;editable=0;locked=1;connectable=0;strokeWidth=2;" edge="1" parent="1">
          <mxGeometry width="50" height="50" relative="1" as="geometry">
            <mxPoint x="870" y="448" as="sourcePoint" />
            <mxPoint x="870" y="408" as="targetPoint" />
          </mxGeometry>
        </mxCell>
        <mxCell id="7G_IvZ2n9mC5iAlq--vm-70" value="" style="endArrow=none;html=1;rounded=0;movable=0;resizable=0;rotatable=0;deletable=0;editable=0;locked=1;connectable=0;strokeWidth=2;" edge="1" parent="1">
          <mxGeometry width="50" height="50" relative="1" as="geometry">
            <mxPoint x="830" y="428" as="sourcePoint" />
            <mxPoint x="850" y="428" as="targetPoint" />
          </mxGeometry>
        </mxCell>
        <mxCell id="7G_IvZ2n9mC5iAlq--vm-71" value="" style="endArrow=none;html=1;rounded=0;movable=0;resizable=0;rotatable=0;deletable=0;editable=0;locked=1;connectable=0;strokeWidth=2;" edge="1" parent="1">
          <mxGeometry width="50" height="50" relative="1" as="geometry">
            <mxPoint x="830" y="448" as="sourcePoint" />
            <mxPoint x="850" y="448" as="targetPoint" />
          </mxGeometry>
        </mxCell>
        <mxCell id="7G_IvZ2n9mC5iAlq--vm-72" value="" style="endArrow=none;html=1;rounded=0;movable=0;resizable=0;rotatable=0;deletable=0;editable=0;locked=1;connectable=0;strokeWidth=2;" edge="1" parent="1">
          <mxGeometry width="50" height="50" relative="1" as="geometry">
            <mxPoint x="860" y="388" as="sourcePoint" />
            <mxPoint x="860" y="403" as="targetPoint" />
          </mxGeometry>
        </mxCell>
        <mxCell id="7G_IvZ2n9mC5iAlq--vm-73" value="" style="endArrow=none;html=1;rounded=0;movable=0;resizable=0;rotatable=0;deletable=0;editable=0;locked=1;connectable=0;strokeWidth=2;" edge="1" parent="1">
          <mxGeometry width="50" height="50" relative="1" as="geometry">
            <mxPoint x="830" y="408" as="sourcePoint" />
            <mxPoint x="850" y="408" as="targetPoint" />
          </mxGeometry>
        </mxCell>
        <mxCell id="7G_IvZ2n9mC5iAlq--vm-74" value="" style="endArrow=none;html=1;rounded=0;movable=0;resizable=0;rotatable=0;deletable=0;editable=0;locked=1;connectable=0;strokeWidth=2;" edge="1" parent="1">
          <mxGeometry width="50" height="50" relative="1" as="geometry">
            <mxPoint x="920" y="360" as="sourcePoint" />
            <mxPoint x="920" y="318" as="targetPoint" />
          </mxGeometry>
        </mxCell>
        <mxCell id="7G_IvZ2n9mC5iAlq--vm-75" value="" style="endArrow=none;html=1;rounded=0;movable=0;resizable=0;rotatable=0;deletable=0;editable=0;locked=1;connectable=0;strokeWidth=2;" edge="1" parent="1">
          <mxGeometry width="50" height="50" relative="1" as="geometry">
            <mxPoint x="920" y="318" as="sourcePoint" />
            <mxPoint x="940" y="328" as="targetPoint" />
          </mxGeometry>
        </mxCell>
        <mxCell id="7G_IvZ2n9mC5iAlq--vm-76" value="" style="endArrow=none;html=1;rounded=0;movable=0;resizable=0;rotatable=0;deletable=0;editable=0;locked=1;connectable=0;strokeWidth=2;" edge="1" parent="1">
          <mxGeometry width="50" height="50" relative="1" as="geometry">
            <mxPoint x="920" y="360" as="sourcePoint" />
            <mxPoint x="940" y="350" as="targetPoint" />
          </mxGeometry>
        </mxCell>
        <mxCell id="7G_IvZ2n9mC5iAlq--vm-77" value="" style="endArrow=none;html=1;rounded=0;movable=0;resizable=0;rotatable=0;deletable=0;editable=0;locked=1;connectable=0;strokeWidth=2;" edge="1" parent="1">
          <mxGeometry width="50" height="50" relative="1" as="geometry">
            <mxPoint x="940" y="350" as="sourcePoint" />
            <mxPoint x="940" y="328" as="targetPoint" />
          </mxGeometry>
        </mxCell>
        <mxCell id="7G_IvZ2n9mC5iAlq--vm-78" value="" style="endArrow=none;html=1;rounded=0;movable=0;resizable=0;rotatable=0;deletable=0;editable=0;locked=1;connectable=0;strokeWidth=2;" edge="1" parent="1">
          <mxGeometry width="50" height="50" relative="1" as="geometry">
            <mxPoint x="900" y="348" as="sourcePoint" />
            <mxPoint x="920" y="348" as="targetPoint" />
          </mxGeometry>
        </mxCell>
        <mxCell id="7G_IvZ2n9mC5iAlq--vm-80" value="" style="endArrow=none;html=1;rounded=0;movable=0;resizable=0;rotatable=0;deletable=0;editable=0;locked=1;connectable=0;strokeWidth=2;" edge="1" parent="1">
          <mxGeometry width="50" height="50" relative="1" as="geometry">
            <mxPoint x="930" y="308" as="sourcePoint" />
            <mxPoint x="930" y="323" as="targetPoint" />
          </mxGeometry>
        </mxCell>
        <mxCell id="7G_IvZ2n9mC5iAlq--vm-81" value="" style="endArrow=none;html=1;rounded=0;movable=0;resizable=0;rotatable=0;deletable=0;editable=0;locked=1;connectable=0;strokeWidth=2;" edge="1" parent="1">
          <mxGeometry width="50" height="50" relative="1" as="geometry">
            <mxPoint x="870" y="328" as="sourcePoint" />
            <mxPoint x="920" y="328" as="targetPoint" />
          </mxGeometry>
        </mxCell>
        <mxCell id="7G_IvZ2n9mC5iAlq--vm-132" value="" style="endArrow=none;html=1;rounded=0;movable=0;resizable=0;rotatable=0;deletable=0;editable=0;locked=1;connectable=0;strokeWidth=2;" edge="1" parent="1">
          <mxGeometry width="50" height="50" relative="1" as="geometry">
            <mxPoint x="190" y="350" as="sourcePoint" />
            <mxPoint x="190" y="370" as="targetPoint" />
          </mxGeometry>
        </mxCell>
        <mxCell id="7G_IvZ2n9mC5iAlq--vm-134" value="" style="endArrow=none;html=1;rounded=0;movable=0;resizable=0;rotatable=0;deletable=0;editable=0;locked=1;connectable=0;strokeWidth=2;" edge="1" parent="1">
          <mxGeometry width="50" height="50" relative="1" as="geometry">
            <mxPoint x="170" y="382" as="sourcePoint" />
            <mxPoint x="170" y="340" as="targetPoint" />
          </mxGeometry>
        </mxCell>
        <mxCell id="7G_IvZ2n9mC5iAlq--vm-135" value="" style="endArrow=none;html=1;rounded=0;movable=0;resizable=0;rotatable=0;deletable=0;editable=0;locked=1;connectable=0;strokeWidth=2;" edge="1" parent="1">
          <mxGeometry width="50" height="50" relative="1" as="geometry">
            <mxPoint x="170" y="340" as="sourcePoint" />
            <mxPoint x="190" y="350" as="targetPoint" />
          </mxGeometry>
        </mxCell>
        <mxCell id="7G_IvZ2n9mC5iAlq--vm-136" value="" style="endArrow=none;html=1;rounded=0;movable=0;resizable=0;rotatable=0;deletable=0;editable=0;locked=1;connectable=0;strokeWidth=2;" edge="1" parent="1">
          <mxGeometry width="50" height="50" relative="1" as="geometry">
            <mxPoint x="170" y="380" as="sourcePoint" />
            <mxPoint x="190" y="370" as="targetPoint" />
          </mxGeometry>
        </mxCell>
        <mxCell id="7G_IvZ2n9mC5iAlq--vm-137" value="" style="endArrow=none;html=1;rounded=0;movable=0;resizable=0;rotatable=0;deletable=0;editable=0;locked=1;connectable=0;strokeWidth=2;" edge="1" parent="1">
          <mxGeometry width="50" height="50" relative="1" as="geometry">
            <mxPoint x="179.71" y="344" as="sourcePoint" />
            <mxPoint x="179.71" y="322" as="targetPoint" />
          </mxGeometry>
        </mxCell>
        <mxCell id="7G_IvZ2n9mC5iAlq--vm-138" value="" style="endArrow=none;html=1;rounded=0;movable=0;resizable=0;rotatable=0;deletable=0;editable=0;locked=1;connectable=0;strokeWidth=2;" edge="1" parent="1">
          <mxGeometry width="50" height="50" relative="1" as="geometry">
            <mxPoint x="150" y="370" as="sourcePoint" />
            <mxPoint x="170" y="370" as="targetPoint" />
          </mxGeometry>
        </mxCell>
        <mxCell id="7G_IvZ2n9mC5iAlq--vm-139" value="" style="endArrow=none;html=1;rounded=0;movable=0;resizable=0;rotatable=0;deletable=0;editable=0;locked=1;connectable=0;strokeWidth=2;" edge="1" parent="1">
          <mxGeometry width="50" height="50" relative="1" as="geometry">
            <mxPoint x="150" y="350" as="sourcePoint" />
            <mxPoint x="170" y="350" as="targetPoint" />
          </mxGeometry>
        </mxCell>
        <mxCell id="7G_IvZ2n9mC5iAlq--vm-161" value="" style="endArrow=none;html=1;rounded=0;movable=0;resizable=0;rotatable=0;deletable=0;editable=0;locked=1;connectable=0;strokeWidth=2;" edge="1" parent="1">
          <mxGeometry width="50" height="50" relative="1" as="geometry">
            <mxPoint x="920" y="452" as="sourcePoint" />
            <mxPoint x="920" y="410" as="targetPoint" />
          </mxGeometry>
        </mxCell>
        <mxCell id="7G_IvZ2n9mC5iAlq--vm-162" value="" style="endArrow=none;html=1;rounded=0;movable=0;resizable=0;rotatable=0;deletable=0;editable=0;locked=1;connectable=0;strokeWidth=2;" edge="1" parent="1">
          <mxGeometry width="50" height="50" relative="1" as="geometry">
            <mxPoint x="920" y="410" as="sourcePoint" />
            <mxPoint x="940" y="420" as="targetPoint" />
          </mxGeometry>
        </mxCell>
        <mxCell id="7G_IvZ2n9mC5iAlq--vm-163" value="" style="endArrow=none;html=1;rounded=0;movable=0;resizable=0;rotatable=0;deletable=0;editable=0;locked=1;connectable=0;strokeWidth=2;" edge="1" parent="1">
          <mxGeometry width="50" height="50" relative="1" as="geometry">
            <mxPoint x="920" y="452" as="sourcePoint" />
            <mxPoint x="940" y="442" as="targetPoint" />
          </mxGeometry>
        </mxCell>
        <mxCell id="7G_IvZ2n9mC5iAlq--vm-164" value="" style="endArrow=none;html=1;rounded=0;movable=0;resizable=0;rotatable=0;deletable=0;editable=0;locked=1;connectable=0;strokeWidth=2;" edge="1" parent="1">
          <mxGeometry width="50" height="50" relative="1" as="geometry">
            <mxPoint x="940" y="442" as="sourcePoint" />
            <mxPoint x="940" y="420" as="targetPoint" />
          </mxGeometry>
        </mxCell>
        <mxCell id="7G_IvZ2n9mC5iAlq--vm-165" value="" style="endArrow=none;html=1;rounded=0;movable=0;resizable=0;rotatable=0;deletable=0;editable=0;locked=1;connectable=0;strokeWidth=2;" edge="1" parent="1">
          <mxGeometry width="50" height="50" relative="1" as="geometry">
            <mxPoint x="900" y="440" as="sourcePoint" />
            <mxPoint x="920" y="440" as="targetPoint" />
          </mxGeometry>
        </mxCell>
        <mxCell id="7G_IvZ2n9mC5iAlq--vm-166" value="" style="endArrow=none;html=1;rounded=0;movable=0;resizable=0;rotatable=0;deletable=0;editable=0;locked=1;connectable=0;strokeWidth=2;" edge="1" parent="1">
          <mxGeometry width="50" height="50" relative="1" as="geometry">
            <mxPoint x="930" y="400" as="sourcePoint" />
            <mxPoint x="930" y="415" as="targetPoint" />
          </mxGeometry>
        </mxCell>
        <mxCell id="7G_IvZ2n9mC5iAlq--vm-167" value="" style="endArrow=none;html=1;rounded=0;movable=0;resizable=0;rotatable=0;deletable=0;editable=0;locked=1;connectable=0;strokeWidth=2;" edge="1" parent="1">
          <mxGeometry width="50" height="50" relative="1" as="geometry">
            <mxPoint x="870" y="420" as="sourcePoint" />
            <mxPoint x="920" y="420" as="targetPoint" />
          </mxGeometry>
        </mxCell>
        <mxCell id="7G_IvZ2n9mC5iAlq--vm-168" value="ALU" style="rounded=0;whiteSpace=wrap;html=1;fontStyle=1;movable=0;resizable=0;rotatable=0;deletable=0;editable=0;locked=1;connectable=0;strokeColor=#4be713;strokeWidth=2;" vertex="1" parent="1">
          <mxGeometry x="975" y="350" width="50" height="52" as="geometry" />
        </mxCell>
        <mxCell id="7G_IvZ2n9mC5iAlq--vm-170" value="rs1_ex" style="text;html=1;align=center;verticalAlign=middle;resizable=0;points=[];autosize=1;strokeColor=none;fillColor=none;movable=0;rotatable=0;deletable=0;editable=0;locked=1;connectable=0;strokeWidth=2;" vertex="1" parent="1">
          <mxGeometry x="800" y="288" width="60" height="30" as="geometry" />
        </mxCell>
        <mxCell id="7G_IvZ2n9mC5iAlq--vm-171" value="rs2_ex" style="text;html=1;align=center;verticalAlign=middle;resizable=0;points=[];autosize=1;strokeColor=none;fillColor=none;movable=0;rotatable=0;deletable=0;editable=0;locked=1;connectable=0;strokeWidth=2;" vertex="1" parent="1">
          <mxGeometry x="800" y="388" width="60" height="30" as="geometry" />
        </mxCell>
        <mxCell id="7G_IvZ2n9mC5iAlq--vm-172" value="Asel_ex" style="text;html=1;align=center;verticalAlign=middle;resizable=0;points=[];autosize=1;strokeColor=none;fillColor=none;movable=0;rotatable=0;deletable=0;editable=0;locked=1;connectable=0;strokeWidth=2;" vertex="1" parent="1">
          <mxGeometry x="895" y="288" width="70" height="30" as="geometry" />
        </mxCell>
        <mxCell id="7G_IvZ2n9mC5iAlq--vm-173" value="Bsel_ex" style="text;html=1;align=center;verticalAlign=middle;resizable=0;points=[];autosize=1;strokeColor=none;fillColor=none;movable=0;rotatable=0;deletable=0;editable=0;locked=1;connectable=0;strokeWidth=2;" vertex="1" parent="1">
          <mxGeometry x="890" y="375" width="70" height="30" as="geometry" />
        </mxCell>
        <mxCell id="7G_IvZ2n9mC5iAlq--vm-174" value="" style="endArrow=none;html=1;rounded=0;movable=0;resizable=0;rotatable=0;deletable=0;editable=0;locked=1;connectable=0;strokeWidth=2;" edge="1" parent="1">
          <mxGeometry width="50" height="50" relative="1" as="geometry">
            <mxPoint x="940" y="340" as="sourcePoint" />
            <mxPoint x="960" y="340" as="targetPoint" />
          </mxGeometry>
        </mxCell>
        <mxCell id="7G_IvZ2n9mC5iAlq--vm-175" value="" style="endArrow=none;html=1;rounded=0;movable=0;resizable=0;rotatable=0;deletable=0;editable=0;locked=1;connectable=0;strokeWidth=2;" edge="1" parent="1">
          <mxGeometry width="50" height="50" relative="1" as="geometry">
            <mxPoint x="960" y="360" as="sourcePoint" />
            <mxPoint x="960" y="340" as="targetPoint" />
          </mxGeometry>
        </mxCell>
        <mxCell id="7G_IvZ2n9mC5iAlq--vm-176" value="" style="endArrow=none;html=1;rounded=0;entryX=0.012;entryY=0.188;entryDx=0;entryDy=0;entryPerimeter=0;movable=0;resizable=0;rotatable=0;deletable=0;editable=0;locked=1;connectable=0;strokeWidth=2;" edge="1" parent="1" target="7G_IvZ2n9mC5iAlq--vm-168">
          <mxGeometry width="50" height="50" relative="1" as="geometry">
            <mxPoint x="960" y="360" as="sourcePoint" />
            <mxPoint x="970" y="350" as="targetPoint" />
          </mxGeometry>
        </mxCell>
        <mxCell id="7G_IvZ2n9mC5iAlq--vm-177" value="" style="endArrow=none;html=1;rounded=0;movable=0;resizable=0;rotatable=0;deletable=0;editable=0;locked=1;connectable=0;strokeWidth=2;" edge="1" parent="1">
          <mxGeometry width="50" height="50" relative="1" as="geometry">
            <mxPoint x="940" y="430" as="sourcePoint" />
            <mxPoint x="960" y="430" as="targetPoint" />
          </mxGeometry>
        </mxCell>
        <mxCell id="7G_IvZ2n9mC5iAlq--vm-178" value="" style="endArrow=none;html=1;rounded=0;movable=0;resizable=0;rotatable=0;deletable=0;editable=0;locked=1;connectable=0;strokeWidth=2;" edge="1" parent="1">
          <mxGeometry width="50" height="50" relative="1" as="geometry">
            <mxPoint x="960" y="430" as="sourcePoint" />
            <mxPoint x="960" y="390" as="targetPoint" />
            <Array as="points">
              <mxPoint x="960" y="420" />
            </Array>
          </mxGeometry>
        </mxCell>
        <mxCell id="7G_IvZ2n9mC5iAlq--vm-179" value="" style="endArrow=none;html=1;rounded=0;exitX=0.994;exitY=0.493;exitDx=0;exitDy=0;exitPerimeter=0;entryX=0;entryY=0.75;entryDx=0;entryDy=0;movable=0;resizable=0;rotatable=0;deletable=0;editable=0;locked=1;connectable=0;strokeWidth=2;" edge="1" parent="1" source="7G_IvZ2n9mC5iAlq--vm-173" target="7G_IvZ2n9mC5iAlq--vm-168">
          <mxGeometry width="50" height="50" relative="1" as="geometry">
            <mxPoint x="970" y="370" as="sourcePoint" />
            <mxPoint x="970" y="390" as="targetPoint" />
          </mxGeometry>
        </mxCell>
        <mxCell id="7G_IvZ2n9mC5iAlq--vm-180" value="pc_ex" style="text;html=1;align=center;verticalAlign=middle;resizable=0;points=[];autosize=1;strokeColor=none;fillColor=none;movable=0;rotatable=0;deletable=0;editable=0;locked=1;connectable=0;strokeWidth=2;" vertex="1" parent="1">
          <mxGeometry x="870" y="340" width="60" height="30" as="geometry" />
        </mxCell>
        <mxCell id="7G_IvZ2n9mC5iAlq--vm-181" value="imm_ex" style="text;html=1;align=center;verticalAlign=middle;resizable=0;points=[];autosize=1;strokeColor=none;fillColor=none;movable=0;rotatable=0;deletable=0;editable=0;locked=1;connectable=0;strokeWidth=2;" vertex="1" parent="1">
          <mxGeometry x="860" y="430" width="70" height="30" as="geometry" />
        </mxCell>
        <mxCell id="7G_IvZ2n9mC5iAlq--vm-182" value="" style="rounded=0;whiteSpace=wrap;html=1;fillColor=#440dab;movable=0;resizable=0;rotatable=0;deletable=0;editable=0;locked=1;connectable=0;strokeWidth=2;" vertex="1" parent="1">
          <mxGeometry x="1050" y="290" width="10" height="160" as="geometry" />
        </mxCell>
        <mxCell id="7G_IvZ2n9mC5iAlq--vm-183" value="" style="endArrow=none;html=1;rounded=0;entryX=-0.067;entryY=0.547;entryDx=0;entryDy=0;entryPerimeter=0;movable=0;resizable=0;rotatable=0;deletable=0;editable=0;locked=1;connectable=0;strokeWidth=2;" edge="1" parent="1" target="7G_IvZ2n9mC5iAlq--vm-182">
          <mxGeometry width="50" height="50" relative="1" as="geometry">
            <mxPoint x="1025" y="378" as="sourcePoint" />
            <mxPoint x="1075" y="328" as="targetPoint" />
          </mxGeometry>
        </mxCell>
        <mxCell id="7G_IvZ2n9mC5iAlq--vm-184" value="" style="endArrow=none;html=1;rounded=0;exitX=0.166;exitY=1.005;exitDx=0;exitDy=0;exitPerimeter=0;movable=0;resizable=0;rotatable=0;deletable=0;editable=0;locked=1;connectable=0;strokeWidth=2;" edge="1" parent="1" source="7G_IvZ2n9mC5iAlq--vm-180">
          <mxGeometry width="50" height="50" relative="1" as="geometry">
            <mxPoint x="880" y="368" as="sourcePoint" />
            <mxPoint x="880" y="328" as="targetPoint" />
          </mxGeometry>
        </mxCell>
        <mxCell id="7G_IvZ2n9mC5iAlq--vm-185" value="" style="endArrow=none;html=1;rounded=0;exitX=1;exitY=0.5;exitDx=0;exitDy=0;entryX=0.153;entryY=0.993;entryDx=0;entryDy=0;entryPerimeter=0;movable=0;resizable=0;rotatable=0;deletable=0;editable=0;locked=1;connectable=0;strokeWidth=2;" edge="1" parent="1" source="7G_IvZ2n9mC5iAlq--vm-57" target="7G_IvZ2n9mC5iAlq--vm-180">
          <mxGeometry width="50" height="50" relative="1" as="geometry">
            <mxPoint x="830" y="418" as="sourcePoint" />
            <mxPoint x="880" y="368" as="targetPoint" />
          </mxGeometry>
        </mxCell>
        <mxCell id="7G_IvZ2n9mC5iAlq--vm-186" value="" style="endArrow=none;html=1;rounded=0;movable=0;resizable=0;rotatable=0;deletable=0;editable=0;locked=1;connectable=0;strokeWidth=2;" edge="1" parent="1">
          <mxGeometry width="50" height="50" relative="1" as="geometry">
            <mxPoint x="880" y="420" as="sourcePoint" />
            <mxPoint x="880" y="380" as="targetPoint" />
          </mxGeometry>
        </mxCell>
        <mxCell id="7G_IvZ2n9mC5iAlq--vm-187" value="" style="endArrow=none;html=1;rounded=0;exitX=0.99;exitY=0.68;exitDx=0;exitDy=0;exitPerimeter=0;movable=0;resizable=0;rotatable=0;deletable=0;editable=0;locked=1;connectable=0;strokeWidth=2;" edge="1" parent="1" source="7G_IvZ2n9mC5iAlq--vm-57">
          <mxGeometry width="50" height="50" relative="1" as="geometry">
            <mxPoint x="830" y="430" as="sourcePoint" />
            <mxPoint x="880" y="380" as="targetPoint" />
          </mxGeometry>
        </mxCell>
        <mxCell id="7G_IvZ2n9mC5iAlq--vm-188" value="" style="endArrow=none;html=1;rounded=0;exitX=1;exitY=0.5;exitDx=0;exitDy=0;movable=0;resizable=0;rotatable=0;deletable=0;editable=0;locked=1;connectable=0;strokeWidth=2;" edge="1" parent="1" source="7G_IvZ2n9mC5iAlq--vm-50">
          <mxGeometry width="50" height="50" relative="1" as="geometry">
            <mxPoint x="660" y="420" as="sourcePoint" />
            <mxPoint x="710" y="370" as="targetPoint" />
          </mxGeometry>
        </mxCell>
        <mxCell id="7G_IvZ2n9mC5iAlq--vm-189" value="LSU" style="rounded=0;whiteSpace=wrap;html=1;fontStyle=1;movable=0;resizable=0;rotatable=0;deletable=0;editable=0;locked=1;connectable=0;strokeColor=#4be713;strokeWidth=2;" vertex="1" parent="1">
          <mxGeometry x="1100" y="338" width="50" height="50" as="geometry" />
        </mxCell>
        <mxCell id="7G_IvZ2n9mC5iAlq--vm-190" value="" style="endArrow=none;html=1;rounded=0;entryX=0;entryY=0.25;entryDx=0;entryDy=0;movable=0;resizable=0;rotatable=0;deletable=0;editable=0;locked=1;connectable=0;strokeWidth=2;" edge="1" parent="1" target="7G_IvZ2n9mC5iAlq--vm-189">
          <mxGeometry width="50" height="50" relative="1" as="geometry">
            <mxPoint x="1060" y="350" as="sourcePoint" />
            <mxPoint x="1110" y="300" as="targetPoint" />
          </mxGeometry>
        </mxCell>
        <mxCell id="7G_IvZ2n9mC5iAlq--vm-191" value="addr" style="text;html=1;align=center;verticalAlign=middle;resizable=0;points=[];autosize=1;strokeColor=none;fillColor=none;movable=0;rotatable=0;deletable=0;editable=0;locked=1;connectable=0;strokeWidth=2;" vertex="1" parent="1">
          <mxGeometry x="1060" y="325" width="50" height="30" as="geometry" />
        </mxCell>
        <mxCell id="7G_IvZ2n9mC5iAlq--vm-192" value="" style="endArrow=none;html=1;rounded=0;entryX=0;entryY=0.84;entryDx=0;entryDy=0;entryPerimeter=0;movable=0;resizable=0;rotatable=0;deletable=0;editable=0;locked=1;connectable=0;strokeWidth=2;" edge="1" parent="1" target="7G_IvZ2n9mC5iAlq--vm-189">
          <mxGeometry width="50" height="50" relative="1" as="geometry">
            <mxPoint x="1060" y="380" as="sourcePoint" />
            <mxPoint x="1110" y="330" as="targetPoint" />
          </mxGeometry>
        </mxCell>
        <mxCell id="7G_IvZ2n9mC5iAlq--vm-193" value="data" style="text;html=1;align=center;verticalAlign=middle;resizable=0;points=[];autosize=1;strokeColor=none;fillColor=none;movable=0;rotatable=0;deletable=0;editable=0;locked=1;connectable=0;strokeWidth=2;" vertex="1" parent="1">
          <mxGeometry x="1060" y="358" width="50" height="30" as="geometry" />
        </mxCell>
        <mxCell id="7G_IvZ2n9mC5iAlq--vm-194" value="" style="rounded=0;whiteSpace=wrap;html=1;fillColor=#440dab;movable=0;resizable=0;rotatable=0;deletable=0;editable=0;locked=1;connectable=0;strokeWidth=2;" vertex="1" parent="1">
          <mxGeometry x="1190" y="290" width="10" height="160" as="geometry" />
        </mxCell>
        <mxCell id="7G_IvZ2n9mC5iAlq--vm-195" value="" style="endArrow=none;html=1;rounded=0;entryX=-0.097;entryY=0.434;entryDx=0;entryDy=0;entryPerimeter=0;movable=0;resizable=0;rotatable=0;deletable=0;editable=0;locked=1;connectable=0;strokeWidth=2;" edge="1" parent="1" target="7G_IvZ2n9mC5iAlq--vm-194">
          <mxGeometry width="50" height="50" relative="1" as="geometry">
            <mxPoint x="1150" y="360" as="sourcePoint" />
            <mxPoint x="1200" y="310" as="targetPoint" />
          </mxGeometry>
        </mxCell>
        <mxCell id="7G_IvZ2n9mC5iAlq--vm-196" value="" style="endArrow=none;html=1;rounded=0;movable=0;resizable=0;rotatable=0;deletable=0;editable=0;locked=1;connectable=0;strokeWidth=2;" edge="1" parent="1">
          <mxGeometry width="50" height="50" relative="1" as="geometry">
            <mxPoint x="1240" y="395" as="sourcePoint" />
            <mxPoint x="1240" y="335" as="targetPoint" />
          </mxGeometry>
        </mxCell>
        <mxCell id="7G_IvZ2n9mC5iAlq--vm-197" value="" style="endArrow=none;html=1;rounded=0;movable=0;resizable=0;rotatable=0;deletable=0;editable=0;locked=1;connectable=0;strokeWidth=2;" edge="1" parent="1">
          <mxGeometry width="50" height="50" relative="1" as="geometry">
            <mxPoint x="1240" y="335" as="sourcePoint" />
            <mxPoint x="1260" y="345" as="targetPoint" />
          </mxGeometry>
        </mxCell>
        <mxCell id="7G_IvZ2n9mC5iAlq--vm-198" value="" style="endArrow=none;html=1;rounded=0;movable=0;resizable=0;rotatable=0;deletable=0;editable=0;locked=1;connectable=0;strokeWidth=2;" edge="1" parent="1">
          <mxGeometry width="50" height="50" relative="1" as="geometry">
            <mxPoint x="1240" y="395" as="sourcePoint" />
            <mxPoint x="1260" y="385" as="targetPoint" />
          </mxGeometry>
        </mxCell>
        <mxCell id="7G_IvZ2n9mC5iAlq--vm-199" value="" style="endArrow=none;html=1;rounded=0;movable=0;resizable=0;rotatable=0;deletable=0;editable=0;locked=1;connectable=0;strokeWidth=2;" edge="1" parent="1">
          <mxGeometry width="50" height="50" relative="1" as="geometry">
            <mxPoint x="1260" y="385" as="sourcePoint" />
            <mxPoint x="1260" y="345" as="targetPoint" />
          </mxGeometry>
        </mxCell>
        <mxCell id="7G_IvZ2n9mC5iAlq--vm-200" value="" style="endArrow=none;html=1;rounded=0;movable=0;resizable=0;rotatable=0;deletable=0;editable=0;locked=1;connectable=0;strokeWidth=2;" edge="1" parent="1">
          <mxGeometry width="50" height="50" relative="1" as="geometry">
            <mxPoint x="1200" y="365" as="sourcePoint" />
            <mxPoint x="1240" y="365" as="targetPoint" />
          </mxGeometry>
        </mxCell>
        <mxCell id="7G_IvZ2n9mC5iAlq--vm-201" value="" style="endArrow=none;html=1;rounded=0;movable=0;resizable=0;rotatable=0;deletable=0;editable=0;locked=1;connectable=0;exitX=1.017;exitY=0.597;exitDx=0;exitDy=0;exitPerimeter=0;strokeWidth=2;" edge="1" parent="1" source="7G_IvZ2n9mC5iAlq--vm-194">
          <mxGeometry width="50" height="50" relative="1" as="geometry">
            <mxPoint x="1220" y="385" as="sourcePoint" />
            <mxPoint x="1240" y="385" as="targetPoint" />
          </mxGeometry>
        </mxCell>
        <mxCell id="7G_IvZ2n9mC5iAlq--vm-202" value="" style="endArrow=none;html=1;rounded=0;movable=0;resizable=0;rotatable=0;deletable=0;editable=0;locked=1;connectable=0;strokeWidth=2;" edge="1" parent="1">
          <mxGeometry width="50" height="50" relative="1" as="geometry">
            <mxPoint x="1250" y="325" as="sourcePoint" />
            <mxPoint x="1250" y="340" as="targetPoint" />
          </mxGeometry>
        </mxCell>
        <mxCell id="7G_IvZ2n9mC5iAlq--vm-203" value="" style="endArrow=none;html=1;rounded=0;movable=0;resizable=0;rotatable=0;deletable=0;editable=0;locked=1;connectable=0;exitX=1.1;exitY=0.342;exitDx=0;exitDy=0;exitPerimeter=0;strokeWidth=2;" edge="1" parent="1" source="7G_IvZ2n9mC5iAlq--vm-194">
          <mxGeometry width="50" height="50" relative="1" as="geometry">
            <mxPoint x="1220" y="345" as="sourcePoint" />
            <mxPoint x="1240" y="345" as="targetPoint" />
          </mxGeometry>
        </mxCell>
        <mxCell id="7G_IvZ2n9mC5iAlq--vm-204" value="WBsel_wb" style="text;html=1;align=center;verticalAlign=middle;resizable=0;points=[];autosize=1;strokeColor=none;fillColor=none;movable=0;rotatable=0;deletable=0;editable=0;locked=1;connectable=0;strokeWidth=2;" vertex="1" parent="1">
          <mxGeometry x="1210" y="300" width="80" height="30" as="geometry" />
        </mxCell>
        <mxCell id="7G_IvZ2n9mC5iAlq--vm-211" value="Hazard unit" style="rounded=1;whiteSpace=wrap;html=1;fontStyle=1;movable=0;resizable=0;rotatable=0;deletable=0;editable=0;locked=1;connectable=0;strokeColor=#4be713;strokeWidth=2;" vertex="1" parent="1">
          <mxGeometry x="710" y="530" width="390" height="40" as="geometry" />
        </mxCell>
        <mxCell id="7G_IvZ2n9mC5iAlq--vm-213" value="" style="endArrow=none;html=1;rounded=0;fillColor=#e51400;strokeColor=#B20000;movable=0;resizable=0;rotatable=0;deletable=0;editable=0;locked=1;connectable=0;strokeWidth=2;" edge="1" parent="1">
          <mxGeometry width="50" height="50" relative="1" as="geometry">
            <mxPoint x="1100" y="560" as="sourcePoint" />
            <mxPoint x="1210" y="560" as="targetPoint" />
          </mxGeometry>
        </mxCell>
        <mxCell id="7G_IvZ2n9mC5iAlq--vm-214" value="" style="endArrow=none;html=1;rounded=0;fillColor=#e51400;strokeColor=#B20000;movable=0;resizable=0;rotatable=0;deletable=0;editable=0;locked=1;connectable=0;strokeWidth=2;" edge="1" parent="1">
          <mxGeometry width="50" height="50" relative="1" as="geometry">
            <mxPoint x="1210" y="560" as="sourcePoint" />
            <mxPoint x="1210" y="430" as="targetPoint" />
          </mxGeometry>
        </mxCell>
        <mxCell id="7G_IvZ2n9mC5iAlq--vm-215" value="" style="endArrow=none;html=1;rounded=0;fillColor=#e51400;strokeColor=#B20000;exitX=1.122;exitY=0.878;exitDx=0;exitDy=0;exitPerimeter=0;movable=0;resizable=0;rotatable=0;deletable=0;editable=0;locked=1;connectable=0;strokeWidth=2;" edge="1" parent="1" source="7G_IvZ2n9mC5iAlq--vm-194">
          <mxGeometry width="50" height="50" relative="1" as="geometry">
            <mxPoint x="1200" y="434.76" as="sourcePoint" />
            <mxPoint x="1210" y="435" as="targetPoint" />
            <Array as="points">
              <mxPoint x="1210" y="430" />
            </Array>
          </mxGeometry>
        </mxCell>
        <mxCell id="7G_IvZ2n9mC5iAlq--vm-216" value="inst_wb" style="text;html=1;align=center;verticalAlign=middle;resizable=0;points=[];autosize=1;strokeColor=none;fillColor=none;movable=0;rotatable=0;deletable=0;editable=0;locked=1;connectable=0;strokeWidth=2;" vertex="1" parent="1">
          <mxGeometry x="1110" y="535" width="60" height="30" as="geometry" />
        </mxCell>
        <mxCell id="7G_IvZ2n9mC5iAlq--vm-217" value="" style="endArrow=none;html=1;rounded=0;fillColor=#e51400;strokeColor=#B20000;exitX=0.925;exitY=-0.032;exitDx=0;exitDy=0;exitPerimeter=0;movable=0;resizable=0;rotatable=0;deletable=0;editable=0;locked=1;connectable=0;strokeWidth=2;" edge="1" parent="1" source="7G_IvZ2n9mC5iAlq--vm-211">
          <mxGeometry width="50" height="50" relative="1" as="geometry">
            <mxPoint x="1060" y="490" as="sourcePoint" />
            <mxPoint x="1071" y="440" as="targetPoint" />
          </mxGeometry>
        </mxCell>
        <mxCell id="7G_IvZ2n9mC5iAlq--vm-218" value="" style="endArrow=none;html=1;rounded=0;fillColor=#e51400;strokeColor=#B20000;movable=0;resizable=0;rotatable=0;deletable=0;editable=0;locked=1;connectable=0;strokeWidth=2;" edge="1" parent="1">
          <mxGeometry width="50" height="50" relative="1" as="geometry">
            <mxPoint x="1061" y="440" as="sourcePoint" />
            <mxPoint x="1070" y="440" as="targetPoint" />
          </mxGeometry>
        </mxCell>
        <mxCell id="7G_IvZ2n9mC5iAlq--vm-219" value="inst_mem" style="text;html=1;align=center;verticalAlign=middle;resizable=0;points=[];autosize=1;strokeColor=none;fillColor=none;rotation=90;movable=0;rotatable=0;deletable=0;editable=0;locked=1;connectable=0;strokeWidth=2;" vertex="1" parent="1">
          <mxGeometry x="1040" y="488" width="80" height="30" as="geometry" />
        </mxCell>
        <mxCell id="7G_IvZ2n9mC5iAlq--vm-220" value="" style="endArrow=none;html=1;rounded=0;fillColor=#e51400;strokeColor=#B20000;movable=0;resizable=0;rotatable=0;deletable=0;editable=0;locked=1;connectable=0;strokeWidth=2;" edge="1" parent="1">
          <mxGeometry width="50" height="50" relative="1" as="geometry">
            <mxPoint x="690" y="444.65999999999997" as="sourcePoint" />
            <mxPoint x="720" y="445" as="targetPoint" />
          </mxGeometry>
        </mxCell>
        <mxCell id="7G_IvZ2n9mC5iAlq--vm-221" value="" style="endArrow=none;html=1;rounded=0;fillColor=#e51400;strokeColor=#B20000;entryX=0.025;entryY=-0.017;entryDx=0;entryDy=0;entryPerimeter=0;movable=0;resizable=0;rotatable=0;deletable=0;editable=0;locked=1;connectable=0;strokeWidth=2;" edge="1" parent="1" target="7G_IvZ2n9mC5iAlq--vm-211">
          <mxGeometry width="50" height="50" relative="1" as="geometry">
            <mxPoint x="720" y="442.65999999999997" as="sourcePoint" />
            <mxPoint x="730" y="518" as="targetPoint" />
          </mxGeometry>
        </mxCell>
        <mxCell id="7G_IvZ2n9mC5iAlq--vm-222" value="inst_ex" style="text;html=1;align=center;verticalAlign=middle;resizable=0;points=[];autosize=1;strokeColor=none;fillColor=none;rotation=90;movable=0;rotatable=0;deletable=0;editable=0;locked=1;connectable=0;strokeWidth=2;" vertex="1" parent="1">
          <mxGeometry x="700" y="488" width="60" height="30" as="geometry" />
        </mxCell>
        <mxCell id="7G_IvZ2n9mC5iAlq--vm-224" value="Asel_haz" style="text;html=1;align=center;verticalAlign=middle;resizable=0;points=[];autosize=1;strokeColor=none;fillColor=none;movable=0;rotatable=0;deletable=0;editable=0;locked=1;connectable=0;strokeWidth=2;" vertex="1" parent="1">
          <mxGeometry x="850" y="270" width="70" height="30" as="geometry" />
        </mxCell>
        <mxCell id="7G_IvZ2n9mC5iAlq--vm-225" value="Bsel_haz" style="text;html=1;align=center;verticalAlign=middle;resizable=0;points=[];autosize=1;strokeColor=none;fillColor=none;movable=0;rotatable=0;deletable=0;editable=0;locked=1;connectable=0;strokeWidth=2;" vertex="1" parent="1">
          <mxGeometry x="835" y="370" width="70" height="30" as="geometry" />
        </mxCell>
        <mxCell id="7G_IvZ2n9mC5iAlq--vm-227" value="" style="endArrow=none;html=1;rounded=0;fillColor=#e51400;strokeColor=#B20000;movable=0;resizable=0;rotatable=0;deletable=0;editable=0;locked=1;connectable=0;strokeWidth=2;" edge="1" parent="1">
          <mxGeometry width="50" height="50" relative="1" as="geometry">
            <mxPoint x="869.31" y="459.83" as="sourcePoint" />
            <mxPoint x="869" y="530" as="targetPoint" />
          </mxGeometry>
        </mxCell>
        <mxCell id="7G_IvZ2n9mC5iAlq--vm-228" value="Asel_haz" style="text;html=1;align=center;verticalAlign=middle;resizable=0;points=[];autosize=1;strokeColor=none;fillColor=none;rotation=90;movable=0;rotatable=0;deletable=0;editable=0;locked=1;connectable=0;strokeWidth=2;" vertex="1" parent="1">
          <mxGeometry x="850" y="480" width="70" height="30" as="geometry" />
        </mxCell>
        <mxCell id="7G_IvZ2n9mC5iAlq--vm-229" value="" style="endArrow=none;html=1;rounded=0;fillColor=#e51400;strokeColor=#B20000;movable=0;resizable=0;rotatable=0;deletable=0;editable=0;locked=1;connectable=0;strokeWidth=2;" edge="1" parent="1">
          <mxGeometry width="50" height="50" relative="1" as="geometry">
            <mxPoint x="914.31" y="460" as="sourcePoint" />
            <mxPoint x="914" y="530.1700000000001" as="targetPoint" />
          </mxGeometry>
        </mxCell>
        <mxCell id="7G_IvZ2n9mC5iAlq--vm-230" value="Bsel_haz" style="text;html=1;align=center;verticalAlign=middle;resizable=0;points=[];autosize=1;strokeColor=none;fillColor=none;rotation=90;movable=0;rotatable=0;deletable=0;editable=0;locked=1;connectable=0;strokeWidth=2;" vertex="1" parent="1">
          <mxGeometry x="890" y="480" width="70" height="30" as="geometry" />
        </mxCell>
        <mxCell id="7G_IvZ2n9mC5iAlq--vm-232" value="" style="endArrow=none;html=1;rounded=0;fillColor=#e51400;strokeColor=#B20000;movable=0;resizable=0;rotatable=0;deletable=0;editable=0;locked=1;connectable=0;strokeWidth=2;" edge="1" parent="1">
          <mxGeometry width="50" height="50" relative="1" as="geometry">
            <mxPoint x="290" y="560" as="sourcePoint" />
            <mxPoint x="710" y="560.34" as="targetPoint" />
          </mxGeometry>
        </mxCell>
        <mxCell id="7G_IvZ2n9mC5iAlq--vm-233" value="" style="endArrow=none;html=1;rounded=0;fillColor=#e51400;strokeColor=#B20000;movable=0;resizable=0;rotatable=0;deletable=0;editable=0;locked=1;connectable=0;strokeWidth=2;" edge="1" parent="1">
          <mxGeometry width="50" height="50" relative="1" as="geometry">
            <mxPoint x="289.99999999999994" y="460" as="sourcePoint" />
            <mxPoint x="290.34" y="560.1700000000001" as="targetPoint" />
          </mxGeometry>
        </mxCell>
        <mxCell id="7G_IvZ2n9mC5iAlq--vm-234" value="Stall_IF" style="text;html=1;align=center;verticalAlign=middle;resizable=0;points=[];autosize=1;strokeColor=none;fillColor=none;movable=0;rotatable=0;deletable=0;editable=0;locked=1;connectable=0;strokeWidth=2;" vertex="1" parent="1">
          <mxGeometry x="290" y="535" width="60" height="30" as="geometry" />
        </mxCell>
        <mxCell id="7G_IvZ2n9mC5iAlq--vm-237" value="" style="endArrow=none;html=1;rounded=0;movable=0;resizable=0;rotatable=0;deletable=0;editable=0;locked=1;connectable=0;strokeWidth=2;" edge="1" parent="1">
          <mxGeometry width="50" height="50" relative="1" as="geometry">
            <mxPoint x="300" y="430" as="sourcePoint" />
            <mxPoint x="300" y="410" as="targetPoint" />
          </mxGeometry>
        </mxCell>
        <mxCell id="7G_IvZ2n9mC5iAlq--vm-238" value="Stall_IF" style="text;html=1;align=center;verticalAlign=middle;resizable=0;points=[];autosize=1;strokeColor=none;fillColor=none;movable=0;rotatable=0;deletable=0;editable=0;locked=1;connectable=0;strokeWidth=2;" vertex="1" parent="1">
          <mxGeometry x="265" y="420" width="60" height="30" as="geometry" />
        </mxCell>
        <mxCell id="7G_IvZ2n9mC5iAlq--vm-239" value="" style="endArrow=none;html=1;rounded=0;fillColor=#e51400;strokeColor=#B20000;movable=0;resizable=0;rotatable=0;deletable=0;editable=0;locked=1;connectable=0;strokeWidth=2;" edge="1" parent="1">
          <mxGeometry width="50" height="50" relative="1" as="geometry">
            <mxPoint x="440" y="540" as="sourcePoint" />
            <mxPoint x="710" y="540.34" as="targetPoint" />
          </mxGeometry>
        </mxCell>
        <mxCell id="7G_IvZ2n9mC5iAlq--vm-240" value="" style="endArrow=none;html=1;rounded=0;fillColor=#e51400;strokeColor=#B20000;movable=0;resizable=0;rotatable=0;deletable=0;editable=0;locked=1;connectable=0;strokeWidth=2;" edge="1" parent="1">
          <mxGeometry width="50" height="50" relative="1" as="geometry">
            <mxPoint x="439.16999999999996" y="450" as="sourcePoint" />
            <mxPoint x="440" y="540" as="targetPoint" />
          </mxGeometry>
        </mxCell>
        <mxCell id="7G_IvZ2n9mC5iAlq--vm-241" value="Stall_ID/Flush_ID" style="text;html=1;align=center;verticalAlign=middle;resizable=0;points=[];autosize=1;strokeColor=none;fillColor=none;movable=0;rotatable=0;deletable=0;editable=0;locked=1;connectable=0;strokeWidth=2;" vertex="1" parent="1">
          <mxGeometry x="430" y="518" width="120" height="30" as="geometry" />
        </mxCell>
        <mxCell id="7G_IvZ2n9mC5iAlq--vm-242" value="" style="endArrow=none;html=1;rounded=0;fillColor=#e51400;strokeColor=#B20000;entryX=0.005;entryY=0.013;entryDx=0;entryDy=0;entryPerimeter=0;movable=0;resizable=0;rotatable=0;deletable=0;editable=0;locked=1;connectable=0;strokeWidth=2;" edge="1" parent="1" target="7G_IvZ2n9mC5iAlq--vm-211">
          <mxGeometry width="50" height="50" relative="1" as="geometry">
            <mxPoint x="680" y="530" as="sourcePoint" />
            <mxPoint x="710" y="532.9200000000001" as="targetPoint" />
            <Array as="points">
              <mxPoint x="700" y="530" />
            </Array>
          </mxGeometry>
        </mxCell>
        <mxCell id="7G_IvZ2n9mC5iAlq--vm-243" value="" style="endArrow=none;html=1;rounded=0;fillColor=#e51400;strokeColor=#B20000;movable=0;resizable=0;rotatable=0;deletable=0;editable=0;locked=1;connectable=0;strokeWidth=2;" edge="1" parent="1">
          <mxGeometry width="50" height="50" relative="1" as="geometry">
            <mxPoint x="680" y="450" as="sourcePoint" />
            <mxPoint x="680" y="530" as="targetPoint" />
          </mxGeometry>
        </mxCell>
        <mxCell id="7G_IvZ2n9mC5iAlq--vm-244" value="Stall_ex/Flush_ex" style="text;html=1;align=center;verticalAlign=middle;resizable=0;points=[];autosize=1;strokeColor=none;fillColor=none;rotation=90;fontSize=9;movable=0;rotatable=0;deletable=0;editable=0;locked=1;connectable=0;strokeWidth=2;" vertex="1" parent="1">
          <mxGeometry x="630" y="480" width="90" height="20" as="geometry" />
        </mxCell>
        <mxCell id="7G_IvZ2n9mC5iAlq--vm-245" value="" style="endArrow=none;html=1;rounded=0;fillColor=#e51400;strokeColor=#B20000;movable=0;resizable=0;rotatable=0;deletable=0;editable=0;locked=1;connectable=0;strokeWidth=2;" edge="1" parent="1">
          <mxGeometry width="50" height="50" relative="1" as="geometry">
            <mxPoint x="1055" y="530" as="sourcePoint" />
            <mxPoint x="1054.71" y="450" as="targetPoint" />
          </mxGeometry>
        </mxCell>
        <mxCell id="7G_IvZ2n9mC5iAlq--vm-246" value="Stall_mem/Flush_mem" style="text;html=1;align=center;verticalAlign=middle;resizable=0;points=[];autosize=1;strokeColor=none;fillColor=none;rotation=90;fontSize=7;movable=0;rotatable=0;deletable=0;editable=0;locked=1;connectable=0;strokeWidth=2;" vertex="1" parent="1">
          <mxGeometry x="1000" y="480" width="100" height="20" as="geometry" />
        </mxCell>
        <mxCell id="7G_IvZ2n9mC5iAlq--vm-247" value="" style="endArrow=none;html=1;rounded=0;fillColor=#e51400;strokeColor=#B20000;exitX=0.823;exitY=0.023;exitDx=0;exitDy=0;exitPerimeter=0;movable=0;resizable=0;rotatable=0;deletable=0;editable=0;locked=1;connectable=0;strokeWidth=2;" edge="1" parent="1" source="7G_IvZ2n9mC5iAlq--vm-219">
          <mxGeometry width="50" height="50" relative="1" as="geometry">
            <mxPoint x="1100" y="532.81" as="sourcePoint" />
            <mxPoint x="1190" y="530" as="targetPoint" />
          </mxGeometry>
        </mxCell>
        <mxCell id="7G_IvZ2n9mC5iAlq--vm-248" value="" style="endArrow=none;html=1;rounded=0;fillColor=#e51400;strokeColor=#B20000;movable=0;resizable=0;rotatable=0;deletable=0;editable=0;locked=1;connectable=0;strokeWidth=2;" edge="1" parent="1">
          <mxGeometry width="50" height="50" relative="1" as="geometry">
            <mxPoint x="1190" y="530" as="sourcePoint" />
            <mxPoint x="1190" y="450" as="targetPoint" />
          </mxGeometry>
        </mxCell>
        <mxCell id="7G_IvZ2n9mC5iAlq--vm-249" value="Stall_wb/Flush_wb" style="text;html=1;align=center;verticalAlign=middle;resizable=0;points=[];autosize=1;strokeColor=none;fillColor=none;movable=0;rotatable=0;deletable=0;editable=0;locked=1;connectable=0;strokeWidth=2;" vertex="1" parent="1">
          <mxGeometry x="1080" y="505" width="120" height="30" as="geometry" />
        </mxCell>
        <mxCell id="7G_IvZ2n9mC5iAlq--vm-250" value="Branch predictor" style="rounded=1;whiteSpace=wrap;html=1;fontStyle=1;movable=0;resizable=0;rotatable=0;deletable=0;editable=0;locked=1;connectable=0;strokeColor=#4be713;strokeWidth=2;" vertex="1" parent="1">
          <mxGeometry x="505" y="190" width="120" height="60" as="geometry" />
        </mxCell>
        <mxCell id="7G_IvZ2n9mC5iAlq--vm-258" value="" style="endArrow=none;html=1;rounded=0;fillColor=#1ba1e2;strokeColor=#006EAF;movable=0;resizable=0;rotatable=0;deletable=0;editable=0;locked=1;connectable=0;strokeWidth=2;" edge="1" parent="1">
          <mxGeometry width="50" height="50" relative="1" as="geometry">
            <mxPoint x="720" y="345" as="sourcePoint" />
            <mxPoint x="720" y="210" as="targetPoint" />
          </mxGeometry>
        </mxCell>
        <mxCell id="7G_IvZ2n9mC5iAlq--vm-259" value="" style="endArrow=none;html=1;rounded=0;fillColor=#1ba1e2;strokeColor=#006EAF;movable=0;resizable=0;rotatable=0;deletable=0;editable=0;locked=1;connectable=0;strokeWidth=2;" edge="1" parent="1">
          <mxGeometry width="50" height="50" relative="1" as="geometry">
            <mxPoint x="744.7" y="345" as="sourcePoint" />
            <mxPoint x="745" y="190" as="targetPoint" />
          </mxGeometry>
        </mxCell>
        <mxCell id="7G_IvZ2n9mC5iAlq--vm-260" value="" style="endArrow=none;html=1;rounded=0;fillColor=#1ba1e2;strokeColor=#006EAF;entryX=0.996;entryY=0.827;entryDx=0;entryDy=0;entryPerimeter=0;movable=0;resizable=0;rotatable=0;deletable=0;editable=0;locked=1;connectable=0;strokeWidth=2;" edge="1" parent="1">
          <mxGeometry width="50" height="50" relative="1" as="geometry">
            <mxPoint x="720.48" y="212" as="sourcePoint" />
            <mxPoint x="624.9999999999999" y="211.62" as="targetPoint" />
          </mxGeometry>
        </mxCell>
        <mxCell id="7G_IvZ2n9mC5iAlq--vm-261" value="" style="endArrow=none;html=1;rounded=0;fillColor=#1ba1e2;strokeColor=#006EAF;movable=0;resizable=0;rotatable=0;deletable=0;editable=0;locked=1;connectable=0;strokeWidth=2;" edge="1" parent="1">
          <mxGeometry width="50" height="50" relative="1" as="geometry">
            <mxPoint x="745" y="191.7" as="sourcePoint" />
            <mxPoint x="619" y="191" as="targetPoint" />
          </mxGeometry>
        </mxCell>
        <mxCell id="7G_IvZ2n9mC5iAlq--vm-262" value="BrLt" style="text;html=1;align=center;verticalAlign=middle;resizable=0;points=[];autosize=1;strokeColor=none;fillColor=none;movable=0;rotatable=0;deletable=0;editable=0;locked=1;connectable=0;strokeWidth=2;" vertex="1" parent="1">
          <mxGeometry x="635.48" y="190" width="50" height="30" as="geometry" />
        </mxCell>
        <mxCell id="7G_IvZ2n9mC5iAlq--vm-263" value="BrEq" style="text;html=1;align=center;verticalAlign=middle;resizable=0;points=[];autosize=1;strokeColor=none;fillColor=none;movable=0;rotatable=0;deletable=0;editable=0;locked=1;connectable=0;strokeWidth=2;" vertex="1" parent="1">
          <mxGeometry x="655" y="170" width="50" height="30" as="geometry" />
        </mxCell>
        <mxCell id="7G_IvZ2n9mC5iAlq--vm-264" value="" style="endArrow=none;html=1;rounded=0;fillColor=#1ba1e2;strokeColor=#006EAF;movable=0;resizable=0;rotatable=0;deletable=0;editable=0;locked=1;connectable=0;strokeWidth=2;" edge="1" parent="1">
          <mxGeometry width="50" height="50" relative="1" as="geometry">
            <mxPoint x="690" y="290" as="sourcePoint" />
            <mxPoint x="690" y="230" as="targetPoint" />
          </mxGeometry>
        </mxCell>
        <mxCell id="7G_IvZ2n9mC5iAlq--vm-265" value="" style="endArrow=none;html=1;rounded=0;fillColor=#1ba1e2;strokeColor=#006EAF;entryX=0.996;entryY=0.827;entryDx=0;entryDy=0;entryPerimeter=0;movable=0;resizable=0;rotatable=0;deletable=0;editable=0;locked=1;connectable=0;strokeWidth=2;" edge="1" parent="1">
          <mxGeometry width="50" height="50" relative="1" as="geometry">
            <mxPoint x="690" y="230" as="sourcePoint" />
            <mxPoint x="624.9999999999999" y="230" as="targetPoint" />
          </mxGeometry>
        </mxCell>
        <mxCell id="7G_IvZ2n9mC5iAlq--vm-266" value="inst_ex" style="text;html=1;align=center;verticalAlign=middle;resizable=0;points=[];autosize=1;strokeColor=none;fillColor=none;movable=0;rotatable=0;deletable=0;editable=0;locked=1;connectable=0;strokeWidth=2;" vertex="1" parent="1">
          <mxGeometry x="630" y="205" width="60" height="30" as="geometry" />
        </mxCell>
        <mxCell id="7G_IvZ2n9mC5iAlq--vm-267" value="" style="endArrow=none;html=1;rounded=0;fillColor=#1ba1e2;strokeColor=#006EAF;movable=0;resizable=0;rotatable=0;deletable=0;editable=0;locked=1;connectable=0;strokeWidth=2;" edge="1" parent="1">
          <mxGeometry width="50" height="50" relative="1" as="geometry">
            <mxPoint x="680" y="290" as="sourcePoint" />
            <mxPoint x="680" y="250" as="targetPoint" />
          </mxGeometry>
        </mxCell>
        <mxCell id="7G_IvZ2n9mC5iAlq--vm-268" value="" style="endArrow=none;html=1;rounded=0;fillColor=#1ba1e2;strokeColor=#006EAF;entryX=0.956;entryY=0.986;entryDx=0;entryDy=0;entryPerimeter=0;movable=0;resizable=0;rotatable=0;deletable=0;editable=0;locked=1;connectable=0;strokeWidth=2;" edge="1" parent="1" target="7G_IvZ2n9mC5iAlq--vm-250">
          <mxGeometry width="50" height="50" relative="1" as="geometry">
            <mxPoint x="680" y="250.38" as="sourcePoint" />
            <mxPoint x="584.5199999999999" y="250" as="targetPoint" />
          </mxGeometry>
        </mxCell>
        <mxCell id="7G_IvZ2n9mC5iAlq--vm-269" value="pc_ex" style="text;html=1;align=center;verticalAlign=middle;resizable=0;points=[];autosize=1;strokeColor=none;fillColor=none;movable=0;rotatable=0;deletable=0;editable=0;locked=1;connectable=0;strokeWidth=2;" vertex="1" parent="1">
          <mxGeometry x="625" y="230" width="60" height="30" as="geometry" />
        </mxCell>
        <mxCell id="7G_IvZ2n9mC5iAlq--vm-270" value="" style="endArrow=none;html=1;rounded=0;fillColor=#1ba1e2;strokeColor=#006EAF;movable=0;resizable=0;rotatable=0;deletable=0;editable=0;locked=1;connectable=0;strokeWidth=2;" edge="1" parent="1">
          <mxGeometry width="50" height="50" relative="1" as="geometry">
            <mxPoint x="1030" y="378" as="sourcePoint" />
            <mxPoint x="1030" y="170" as="targetPoint" />
          </mxGeometry>
        </mxCell>
        <mxCell id="7G_IvZ2n9mC5iAlq--vm-271" value="" style="endArrow=none;html=1;rounded=0;fillColor=#1ba1e2;strokeColor=#006EAF;movable=0;resizable=0;rotatable=0;deletable=0;editable=0;locked=1;connectable=0;strokeWidth=2;" edge="1" parent="1">
          <mxGeometry width="50" height="50" relative="1" as="geometry">
            <mxPoint x="1031" y="170.7" as="sourcePoint" />
            <mxPoint x="610" y="170" as="targetPoint" />
          </mxGeometry>
        </mxCell>
        <mxCell id="7G_IvZ2n9mC5iAlq--vm-272" value="" style="endArrow=none;html=1;rounded=0;fillColor=#1ba1e2;strokeColor=#006EAF;movable=0;resizable=0;rotatable=0;deletable=0;editable=0;locked=1;connectable=0;strokeWidth=2;" edge="1" parent="1">
          <mxGeometry width="50" height="50" relative="1" as="geometry">
            <mxPoint x="610" y="190" as="sourcePoint" />
            <mxPoint x="610" y="170" as="targetPoint" />
          </mxGeometry>
        </mxCell>
        <mxCell id="7G_IvZ2n9mC5iAlq--vm-273" value="alu" style="text;html=1;align=center;verticalAlign=middle;resizable=0;points=[];autosize=1;strokeColor=none;fillColor=none;movable=0;rotatable=0;deletable=0;editable=0;locked=1;connectable=0;strokeWidth=2;" vertex="1" parent="1">
          <mxGeometry x="670" y="148" width="40" height="30" as="geometry" />
        </mxCell>
        <mxCell id="7G_IvZ2n9mC5iAlq--vm-274" value="" style="endArrow=none;html=1;rounded=0;fillColor=#1ba1e2;strokeColor=#006EAF;movable=0;resizable=0;rotatable=0;deletable=0;editable=0;locked=1;connectable=0;strokeWidth=2;" edge="1" parent="1">
          <mxGeometry width="50" height="50" relative="1" as="geometry">
            <mxPoint x="505" y="200.7" as="sourcePoint" />
            <mxPoint x="160" y="200" as="targetPoint" />
          </mxGeometry>
        </mxCell>
        <mxCell id="7G_IvZ2n9mC5iAlq--vm-275" value="" style="endArrow=none;html=1;rounded=0;fillColor=#1ba1e2;strokeColor=#006EAF;movable=0;resizable=0;rotatable=0;deletable=0;editable=0;locked=1;connectable=0;strokeWidth=2;" edge="1" parent="1">
          <mxGeometry width="50" height="50" relative="1" as="geometry">
            <mxPoint x="160" y="280" as="sourcePoint" />
            <mxPoint x="160" y="200" as="targetPoint" />
          </mxGeometry>
        </mxCell>
        <mxCell id="7G_IvZ2n9mC5iAlq--vm-276" value="" style="endArrow=none;html=1;rounded=0;fillColor=#1ba1e2;strokeColor=#006EAF;movable=0;resizable=0;rotatable=0;deletable=0;editable=0;locked=1;connectable=0;strokeWidth=2;" edge="1" parent="1">
          <mxGeometry width="50" height="50" relative="1" as="geometry">
            <mxPoint x="505" y="211" as="sourcePoint" />
            <mxPoint x="200" y="210" as="targetPoint" />
          </mxGeometry>
        </mxCell>
        <mxCell id="7G_IvZ2n9mC5iAlq--vm-278" value="" style="endArrow=none;html=1;rounded=0;fillColor=#1ba1e2;strokeColor=#006EAF;movable=0;resizable=0;rotatable=0;deletable=0;editable=0;locked=1;connectable=0;strokeWidth=2;" edge="1" parent="1">
          <mxGeometry width="50" height="50" relative="1" as="geometry">
            <mxPoint x="200" y="280" as="sourcePoint" />
            <mxPoint x="200" y="210" as="targetPoint" />
          </mxGeometry>
        </mxCell>
        <mxCell id="7G_IvZ2n9mC5iAlq--vm-279" value="" style="endArrow=none;html=1;rounded=0;fillColor=#1ba1e2;strokeColor=#006EAF;movable=0;resizable=0;rotatable=0;deletable=0;editable=0;locked=1;connectable=0;strokeWidth=2;" edge="1" parent="1">
          <mxGeometry width="50" height="50" relative="1" as="geometry">
            <mxPoint x="505" y="221" as="sourcePoint" />
            <mxPoint x="240" y="220" as="targetPoint" />
          </mxGeometry>
        </mxCell>
        <mxCell id="7G_IvZ2n9mC5iAlq--vm-280" value="" style="endArrow=none;html=1;rounded=0;fillColor=#1ba1e2;strokeColor=#006EAF;movable=0;resizable=0;rotatable=0;deletable=0;editable=0;locked=1;connectable=0;strokeWidth=2;" edge="1" parent="1">
          <mxGeometry width="50" height="50" relative="1" as="geometry">
            <mxPoint x="240" y="280" as="sourcePoint" />
            <mxPoint x="240" y="220" as="targetPoint" />
          </mxGeometry>
        </mxCell>
        <mxCell id="7G_IvZ2n9mC5iAlq--vm-281" value="" style="endArrow=none;html=1;rounded=0;fillColor=#1ba1e2;strokeColor=#006EAF;movable=0;resizable=0;rotatable=0;deletable=0;editable=0;locked=1;connectable=0;strokeWidth=2;" edge="1" parent="1">
          <mxGeometry width="50" height="50" relative="1" as="geometry">
            <mxPoint x="505" y="231" as="sourcePoint" />
            <mxPoint x="280" y="230" as="targetPoint" />
          </mxGeometry>
        </mxCell>
        <mxCell id="7G_IvZ2n9mC5iAlq--vm-282" value="" style="endArrow=none;html=1;rounded=0;fillColor=#1ba1e2;strokeColor=#006EAF;movable=0;resizable=0;rotatable=0;deletable=0;editable=0;locked=1;connectable=0;strokeWidth=2;" edge="1" parent="1">
          <mxGeometry width="50" height="50" relative="1" as="geometry">
            <mxPoint x="279" y="280" as="sourcePoint" />
            <mxPoint x="279.31" y="230" as="targetPoint" />
          </mxGeometry>
        </mxCell>
        <mxCell id="7G_IvZ2n9mC5iAlq--vm-283" value="" style="endArrow=none;html=1;rounded=0;fillColor=#1ba1e2;strokeColor=#006EAF;exitX=0.005;exitY=0.84;exitDx=0;exitDy=0;exitPerimeter=0;movable=0;resizable=0;rotatable=0;deletable=0;editable=0;locked=1;connectable=0;strokeWidth=2;" edge="1" parent="1" source="7G_IvZ2n9mC5iAlq--vm-250">
          <mxGeometry width="50" height="50" relative="1" as="geometry">
            <mxPoint x="485" y="245.21" as="sourcePoint" />
            <mxPoint x="320" y="240" as="targetPoint" />
          </mxGeometry>
        </mxCell>
        <mxCell id="7G_IvZ2n9mC5iAlq--vm-284" value="" style="endArrow=none;html=1;rounded=0;fillColor=#1ba1e2;strokeColor=#006EAF;movable=0;resizable=0;rotatable=0;deletable=0;editable=0;locked=1;connectable=0;strokeWidth=2;" edge="1" parent="1">
          <mxGeometry width="50" height="50" relative="1" as="geometry">
            <mxPoint x="320" y="280" as="sourcePoint" />
            <mxPoint x="320.31" y="240" as="targetPoint" />
          </mxGeometry>
        </mxCell>
        <mxCell id="7G_IvZ2n9mC5iAlq--vm-285" value="predicted_pc" style="text;html=1;align=center;verticalAlign=middle;resizable=0;points=[];autosize=1;strokeColor=none;fillColor=none;rotation=-90;movable=0;rotatable=0;deletable=0;editable=0;locked=1;connectable=0;strokeWidth=2;" vertex="1" parent="1">
          <mxGeometry x="140" y="230" width="90" height="30" as="geometry" />
        </mxCell>
        <mxCell id="7G_IvZ2n9mC5iAlq--vm-286" value="hit" style="text;html=1;align=center;verticalAlign=middle;resizable=0;points=[];autosize=1;strokeColor=none;fillColor=none;rotation=-90;movable=0;rotatable=0;deletable=0;editable=0;locked=1;connectable=0;strokeWidth=2;" vertex="1" parent="1">
          <mxGeometry x="210" y="230" width="40" height="30" as="geometry" />
        </mxCell>
        <mxCell id="7G_IvZ2n9mC5iAlq--vm-287" value="pc_bp" style="text;html=1;align=center;verticalAlign=middle;resizable=0;points=[];autosize=1;strokeColor=none;fillColor=none;rotation=-90;movable=0;rotatable=0;deletable=0;editable=0;locked=1;connectable=0;strokeWidth=2;" vertex="1" parent="1">
          <mxGeometry x="280" y="240" width="60" height="30" as="geometry" />
        </mxCell>
        <mxCell id="7G_IvZ2n9mC5iAlq--vm-288" value="wrong_predicted" style="text;html=1;align=center;verticalAlign=middle;resizable=0;points=[];autosize=1;strokeColor=none;fillColor=none;rotation=-90;movable=0;rotatable=0;deletable=0;editable=0;locked=1;connectable=0;strokeWidth=2;" vertex="1" parent="1">
          <mxGeometry x="90" y="220" width="110" height="30" as="geometry" />
        </mxCell>
        <mxCell id="7G_IvZ2n9mC5iAlq--vm-289" value="alu_pc" style="text;html=1;align=center;verticalAlign=middle;resizable=0;points=[];autosize=1;strokeColor=none;fillColor=none;rotation=-90;movable=0;rotatable=0;deletable=0;editable=0;locked=1;connectable=0;strokeWidth=2;" vertex="1" parent="1">
          <mxGeometry x="240" y="240" width="60" height="30" as="geometry" />
        </mxCell>
        <mxCell id="7G_IvZ2n9mC5iAlq--vm-290" value="" style="endArrow=none;html=1;rounded=0;fillColor=#1ba1e2;strokeColor=#006EAF;movable=0;resizable=0;rotatable=0;deletable=0;editable=0;locked=1;connectable=0;strokeWidth=2;" edge="1" parent="1">
          <mxGeometry width="50" height="50" relative="1" as="geometry">
            <mxPoint x="610" y="290" as="sourcePoint" />
            <mxPoint x="610" y="250" as="targetPoint" />
            <Array as="points">
              <mxPoint x="610" y="272" />
            </Array>
          </mxGeometry>
        </mxCell>
        <mxCell id="7G_IvZ2n9mC5iAlq--vm-291" value="" style="endArrow=none;html=1;rounded=0;fillColor=#1ba1e2;strokeColor=#006EAF;entryX=0.996;entryY=0.827;entryDx=0;entryDy=0;entryPerimeter=0;movable=0;resizable=0;rotatable=0;deletable=0;editable=0;locked=1;connectable=0;strokeWidth=2;" edge="1" parent="1">
          <mxGeometry width="50" height="50" relative="1" as="geometry">
            <mxPoint x="680" y="290" as="sourcePoint" />
            <mxPoint x="609.5199999999999" y="290" as="targetPoint" />
          </mxGeometry>
        </mxCell>
        <mxCell id="7G_IvZ2n9mC5iAlq--vm-292" value="hit_ex" style="text;html=1;align=center;verticalAlign=middle;resizable=0;points=[];autosize=1;strokeColor=none;fillColor=none;movable=0;rotatable=0;deletable=0;editable=0;locked=1;connectable=0;strokeWidth=2;" vertex="1" parent="1">
          <mxGeometry x="610" y="258" width="60" height="30" as="geometry" />
        </mxCell>
        <mxCell id="7G_IvZ2n9mC5iAlq--vm-293" value="" style="endArrow=none;html=1;rounded=0;movable=0;resizable=0;rotatable=0;deletable=0;editable=0;locked=1;connectable=0;strokeWidth=2;" edge="1" parent="1">
          <mxGeometry width="50" height="50" relative="1" as="geometry">
            <mxPoint x="1060" y="290" as="sourcePoint" />
            <mxPoint x="1060" y="260" as="targetPoint" />
          </mxGeometry>
        </mxCell>
        <mxCell id="7G_IvZ2n9mC5iAlq--vm-294" value="" style="endArrow=none;html=1;rounded=0;movable=0;resizable=0;rotatable=0;deletable=0;editable=0;locked=1;connectable=0;strokeWidth=2;" edge="1" parent="1">
          <mxGeometry width="50" height="50" relative="1" as="geometry">
            <mxPoint x="800" y="260" as="sourcePoint" />
            <mxPoint x="1060" y="260" as="targetPoint" />
          </mxGeometry>
        </mxCell>
        <mxCell id="7G_IvZ2n9mC5iAlq--vm-295" value="" style="endArrow=none;html=1;rounded=0;movable=0;resizable=0;rotatable=0;deletable=0;editable=0;locked=1;connectable=0;strokeWidth=2;" edge="1" parent="1">
          <mxGeometry width="50" height="50" relative="1" as="geometry">
            <mxPoint x="800" y="330" as="sourcePoint" />
            <mxPoint x="800" y="260" as="targetPoint" />
          </mxGeometry>
        </mxCell>
        <mxCell id="7G_IvZ2n9mC5iAlq--vm-296" value="" style="endArrow=none;html=1;rounded=0;movable=0;resizable=0;rotatable=0;deletable=0;editable=0;locked=1;connectable=0;strokeWidth=2;" edge="1" parent="1">
          <mxGeometry width="50" height="50" relative="1" as="geometry">
            <mxPoint x="800" y="330" as="sourcePoint" />
            <mxPoint x="830" y="330" as="targetPoint" />
          </mxGeometry>
        </mxCell>
        <mxCell id="7G_IvZ2n9mC5iAlq--vm-297" value="" style="endArrow=none;html=1;rounded=0;movable=0;resizable=0;rotatable=0;deletable=0;editable=0;locked=1;connectable=0;strokeWidth=2;" edge="1" parent="1">
          <mxGeometry width="50" height="50" relative="1" as="geometry">
            <mxPoint x="800" y="430" as="sourcePoint" />
            <mxPoint x="800" y="330" as="targetPoint" />
          </mxGeometry>
        </mxCell>
        <mxCell id="7G_IvZ2n9mC5iAlq--vm-298" value="" style="endArrow=none;html=1;rounded=0;movable=0;resizable=0;rotatable=0;deletable=0;editable=0;locked=1;connectable=0;strokeWidth=2;" edge="1" parent="1">
          <mxGeometry width="50" height="50" relative="1" as="geometry">
            <mxPoint x="800" y="430" as="sourcePoint" />
            <mxPoint x="830" y="430" as="targetPoint" />
          </mxGeometry>
        </mxCell>
        <mxCell id="7G_IvZ2n9mC5iAlq--vm-299" value="alu_mem" style="text;html=1;align=center;verticalAlign=middle;resizable=0;points=[];autosize=1;strokeColor=none;fillColor=none;movable=0;rotatable=0;deletable=0;editable=0;locked=1;connectable=0;strokeWidth=2;" vertex="1" parent="1">
          <mxGeometry x="890" y="235" width="70" height="30" as="geometry" />
        </mxCell>
        <mxCell id="7G_IvZ2n9mC5iAlq--vm-300" value="" style="endArrow=none;html=1;rounded=0;movable=0;resizable=0;rotatable=0;deletable=0;editable=0;locked=1;connectable=0;strokeWidth=2;" edge="1" parent="1">
          <mxGeometry width="50" height="50" relative="1" as="geometry">
            <mxPoint x="1260" y="365" as="sourcePoint" />
            <mxPoint x="1280" y="365" as="targetPoint" />
          </mxGeometry>
        </mxCell>
        <mxCell id="7G_IvZ2n9mC5iAlq--vm-301" value="" style="endArrow=none;html=1;rounded=0;movable=0;resizable=0;rotatable=0;deletable=0;editable=0;locked=1;connectable=0;strokeWidth=2;" edge="1" parent="1">
          <mxGeometry width="50" height="50" relative="1" as="geometry">
            <mxPoint x="790" y="470" as="sourcePoint" />
            <mxPoint x="790" y="350" as="targetPoint" />
          </mxGeometry>
        </mxCell>
        <mxCell id="7G_IvZ2n9mC5iAlq--vm-302" value="" style="endArrow=none;html=1;rounded=0;movable=0;resizable=0;rotatable=0;deletable=0;editable=0;locked=1;connectable=0;strokeWidth=2;" edge="1" parent="1">
          <mxGeometry width="50" height="50" relative="1" as="geometry">
            <mxPoint x="790" y="470" as="sourcePoint" />
            <mxPoint x="1280" y="470" as="targetPoint" />
          </mxGeometry>
        </mxCell>
        <mxCell id="7G_IvZ2n9mC5iAlq--vm-303" value="" style="endArrow=none;html=1;rounded=0;movable=0;resizable=0;rotatable=0;deletable=0;editable=0;locked=1;connectable=0;strokeWidth=2;" edge="1" parent="1">
          <mxGeometry width="50" height="50" relative="1" as="geometry">
            <mxPoint x="1280" y="470" as="sourcePoint" />
            <mxPoint x="1280" y="365" as="targetPoint" />
          </mxGeometry>
        </mxCell>
        <mxCell id="7G_IvZ2n9mC5iAlq--vm-304" value="" style="endArrow=none;html=1;rounded=0;movable=0;resizable=0;rotatable=0;deletable=0;editable=0;locked=1;connectable=0;strokeWidth=2;" edge="1" parent="1">
          <mxGeometry width="50" height="50" relative="1" as="geometry">
            <mxPoint x="790" y="350" as="sourcePoint" />
            <mxPoint x="830" y="350" as="targetPoint" />
          </mxGeometry>
        </mxCell>
        <mxCell id="7G_IvZ2n9mC5iAlq--vm-305" value="" style="endArrow=none;html=1;rounded=0;movable=0;resizable=0;rotatable=0;deletable=0;editable=0;locked=1;connectable=0;strokeWidth=2;" edge="1" parent="1">
          <mxGeometry width="50" height="50" relative="1" as="geometry">
            <mxPoint x="790" y="450" as="sourcePoint" />
            <mxPoint x="830" y="450" as="targetPoint" />
          </mxGeometry>
        </mxCell>
        <mxCell id="7G_IvZ2n9mC5iAlq--vm-306" value="data_wb" style="text;html=1;align=center;verticalAlign=middle;resizable=0;points=[];autosize=1;strokeColor=none;fillColor=none;rotation=-90;movable=0;rotatable=0;deletable=0;editable=0;locked=1;connectable=0;strokeWidth=2;" vertex="1" parent="1">
          <mxGeometry x="1240" y="405" width="70" height="30" as="geometry" />
        </mxCell>
        <mxCell id="7G_IvZ2n9mC5iAlq--vm-307" value="" style="endArrow=none;html=1;rounded=0;movable=0;resizable=0;rotatable=0;deletable=0;editable=0;locked=1;connectable=0;strokeWidth=2;" edge="1" parent="1">
          <mxGeometry width="50" height="50" relative="1" as="geometry">
            <mxPoint x="1280" y="620" as="sourcePoint" />
            <mxPoint x="1280" y="470" as="targetPoint" />
          </mxGeometry>
        </mxCell>
        <mxCell id="7G_IvZ2n9mC5iAlq--vm-308" value="" style="endArrow=none;html=1;rounded=0;entryX=0.667;entryY=-0.017;entryDx=0;entryDy=0;entryPerimeter=0;movable=0;resizable=0;rotatable=0;deletable=0;editable=0;locked=1;connectable=0;strokeWidth=2;" edge="1" parent="1" target="7G_IvZ2n9mC5iAlq--vm-306">
          <mxGeometry width="50" height="50" relative="1" as="geometry">
            <mxPoint x="1260" y="600" as="sourcePoint" />
            <mxPoint x="1260" y="420" as="targetPoint" />
          </mxGeometry>
        </mxCell>
        <mxCell id="7G_IvZ2n9mC5iAlq--vm-309" value="" style="endArrow=none;html=1;rounded=0;movable=0;resizable=0;rotatable=0;deletable=0;editable=0;locked=1;connectable=0;strokeWidth=2;" edge="1" parent="1">
          <mxGeometry width="50" height="50" relative="1" as="geometry">
            <mxPoint x="1200" y="407.17" as="sourcePoint" />
            <mxPoint x="1260" y="407.17" as="targetPoint" />
          </mxGeometry>
        </mxCell>
        <mxCell id="7G_IvZ2n9mC5iAlq--vm-310" value="" style="endArrow=none;html=1;rounded=0;movable=0;resizable=0;rotatable=0;deletable=0;editable=0;locked=1;connectable=0;strokeWidth=2;" edge="1" parent="1">
          <mxGeometry width="50" height="50" relative="1" as="geometry">
            <mxPoint x="1240" y="580" as="sourcePoint" />
            <mxPoint x="1240" y="420" as="targetPoint" />
          </mxGeometry>
        </mxCell>
        <mxCell id="7G_IvZ2n9mC5iAlq--vm-311" value="" style="endArrow=none;html=1;rounded=0;movable=0;resizable=0;rotatable=0;deletable=0;editable=0;locked=1;connectable=0;strokeWidth=2;" edge="1" parent="1">
          <mxGeometry width="50" height="50" relative="1" as="geometry">
            <mxPoint x="1200" y="418" as="sourcePoint" />
            <mxPoint x="1240" y="418" as="targetPoint" />
          </mxGeometry>
        </mxCell>
        <mxCell id="7G_IvZ2n9mC5iAlq--vm-312" value="" style="endArrow=none;html=1;rounded=0;movable=0;resizable=0;rotatable=0;deletable=0;editable=0;locked=1;connectable=0;strokeWidth=2;" edge="1" parent="1">
          <mxGeometry width="50" height="50" relative="1" as="geometry">
            <mxPoint x="640" y="580" as="sourcePoint" />
            <mxPoint x="1240" y="580" as="targetPoint" />
          </mxGeometry>
        </mxCell>
        <mxCell id="7G_IvZ2n9mC5iAlq--vm-313" value="" style="endArrow=none;html=1;rounded=0;movable=0;resizable=0;rotatable=0;deletable=0;editable=0;locked=1;connectable=0;strokeWidth=2;" edge="1" parent="1">
          <mxGeometry width="50" height="50" relative="1" as="geometry">
            <mxPoint x="600" y="600" as="sourcePoint" />
            <mxPoint x="1260" y="600" as="targetPoint" />
          </mxGeometry>
        </mxCell>
        <mxCell id="7G_IvZ2n9mC5iAlq--vm-314" value="" style="endArrow=none;html=1;rounded=0;movable=0;resizable=0;rotatable=0;deletable=0;editable=0;locked=1;connectable=0;strokeWidth=2;" edge="1" parent="1">
          <mxGeometry width="50" height="50" relative="1" as="geometry">
            <mxPoint x="560" y="620" as="sourcePoint" />
            <mxPoint x="1280" y="620" as="targetPoint" />
          </mxGeometry>
        </mxCell>
        <mxCell id="7G_IvZ2n9mC5iAlq--vm-315" value="" style="endArrow=none;html=1;rounded=0;movable=0;resizable=0;rotatable=0;deletable=0;editable=0;locked=1;connectable=0;strokeWidth=2;" edge="1" parent="1">
          <mxGeometry width="50" height="50" relative="1" as="geometry">
            <mxPoint x="560" y="620" as="sourcePoint" />
            <mxPoint x="560" y="460" as="targetPoint" />
          </mxGeometry>
        </mxCell>
        <mxCell id="7G_IvZ2n9mC5iAlq--vm-316" value="" style="endArrow=none;html=1;rounded=0;movable=0;resizable=0;rotatable=0;deletable=0;editable=0;locked=1;connectable=0;strokeWidth=2;" edge="1" parent="1">
          <mxGeometry width="50" height="50" relative="1" as="geometry">
            <mxPoint x="600" y="600" as="sourcePoint" />
            <mxPoint x="600" y="460" as="targetPoint" />
          </mxGeometry>
        </mxCell>
        <mxCell id="7G_IvZ2n9mC5iAlq--vm-317" value="" style="endArrow=none;html=1;rounded=0;movable=0;resizable=0;rotatable=0;deletable=0;editable=0;locked=1;connectable=0;strokeWidth=2;" edge="1" parent="1">
          <mxGeometry width="50" height="50" relative="1" as="geometry">
            <mxPoint x="640" y="580" as="sourcePoint" />
            <mxPoint x="639.71" y="460" as="targetPoint" />
          </mxGeometry>
        </mxCell>
        <mxCell id="7G_IvZ2n9mC5iAlq--vm-318" value="RegWEn_wb" style="text;html=1;align=center;verticalAlign=middle;resizable=0;points=[];autosize=1;strokeColor=none;fillColor=none;rotation=-90;movable=0;rotatable=0;deletable=0;editable=0;locked=1;connectable=0;strokeWidth=2;" vertex="1" parent="1">
          <mxGeometry x="1205" y="530" width="90" height="30" as="geometry" />
        </mxCell>
        <mxCell id="7G_IvZ2n9mC5iAlq--vm-319" value="rw_wb" style="text;html=1;align=center;verticalAlign=middle;resizable=0;points=[];autosize=1;strokeColor=none;fillColor=none;rotation=-90;movable=0;rotatable=0;deletable=0;editable=0;locked=1;connectable=0;strokeWidth=2;" vertex="1" parent="1">
          <mxGeometry x="1200" y="530" width="60" height="30" as="geometry" />
        </mxCell>
        <mxCell id="7G_IvZ2n9mC5iAlq--vm-320" value="RISC-V BLOCK DIAGRAM" style="text;html=1;align=center;verticalAlign=middle;resizable=0;points=[];autosize=1;strokeColor=none;fillColor=none;fontSize=19;fontStyle=1" vertex="1" parent="1">
          <mxGeometry x="610" y="80" width="250" height="40" as="geometry" />
        </mxCell>
        <mxCell id="7G_IvZ2n9mC5iAlq--vm-321" value="IDLE" style="ellipse;whiteSpace=wrap;html=1;aspect=fixed;movable=0;resizable=0;rotatable=0;deletable=0;editable=0;locked=1;connectable=0;fontStyle=1" vertex="1" parent="1">
          <mxGeometry x="170" y="780" width="70" height="70" as="geometry" />
        </mxCell>
        <mxCell id="7G_IvZ2n9mC5iAlq--vm-322" value="Compare Tag" style="ellipse;whiteSpace=wrap;html=1;aspect=fixed;movable=0;resizable=0;rotatable=0;deletable=0;editable=0;locked=1;connectable=0;fontStyle=1" vertex="1" parent="1">
          <mxGeometry x="370" y="780" width="70" height="70" as="geometry" />
        </mxCell>
        <mxCell id="7G_IvZ2n9mC5iAlq--vm-323" value="Allocate" style="ellipse;whiteSpace=wrap;html=1;aspect=fixed;movable=0;resizable=0;rotatable=0;deletable=0;editable=0;locked=1;connectable=0;fontStyle=1" vertex="1" parent="1">
          <mxGeometry x="165" y="950" width="70" height="70" as="geometry" />
        </mxCell>
        <mxCell id="7G_IvZ2n9mC5iAlq--vm-324" value="Write back" style="ellipse;whiteSpace=wrap;html=1;aspect=fixed;movable=0;resizable=0;rotatable=0;deletable=0;editable=0;locked=1;connectable=0;fontStyle=1" vertex="1" parent="1">
          <mxGeometry x="370" y="950" width="70" height="70" as="geometry" />
        </mxCell>
        <mxCell id="7G_IvZ2n9mC5iAlq--vm-325" value="" style="endArrow=classic;html=1;rounded=0;entryX=0.993;entryY=0.31;entryDx=0;entryDy=0;entryPerimeter=0;exitX=-0.007;exitY=0.31;exitDx=0;exitDy=0;exitPerimeter=0;movable=0;resizable=0;rotatable=0;deletable=0;editable=0;locked=1;connectable=0;" edge="1" parent="1" source="7G_IvZ2n9mC5iAlq--vm-322" target="7G_IvZ2n9mC5iAlq--vm-321">
          <mxGeometry width="50" height="50" relative="1" as="geometry">
            <mxPoint x="370" y="940" as="sourcePoint" />
            <mxPoint x="420" y="890" as="targetPoint" />
          </mxGeometry>
        </mxCell>
        <mxCell id="7G_IvZ2n9mC5iAlq--vm-326" value="" style="endArrow=classic;html=1;rounded=0;entryX=0;entryY=0.714;entryDx=0;entryDy=0;entryPerimeter=0;movable=0;resizable=0;rotatable=0;deletable=0;editable=0;locked=1;connectable=0;" edge="1" parent="1" target="7G_IvZ2n9mC5iAlq--vm-322">
          <mxGeometry width="50" height="50" relative="1" as="geometry">
            <mxPoint x="240" y="830" as="sourcePoint" />
            <mxPoint x="290" y="780" as="targetPoint" />
          </mxGeometry>
        </mxCell>
        <mxCell id="7G_IvZ2n9mC5iAlq--vm-327" value="" style="endArrow=classic;html=1;rounded=0;exitX=0.5;exitY=1;exitDx=0;exitDy=0;entryX=0.5;entryY=0;entryDx=0;entryDy=0;movable=0;resizable=0;rotatable=0;deletable=0;editable=0;locked=1;connectable=0;" edge="1" parent="1" source="7G_IvZ2n9mC5iAlq--vm-322" target="7G_IvZ2n9mC5iAlq--vm-324">
          <mxGeometry width="50" height="50" relative="1" as="geometry">
            <mxPoint x="350" y="920" as="sourcePoint" />
            <mxPoint x="400" y="870" as="targetPoint" />
          </mxGeometry>
        </mxCell>
        <mxCell id="7G_IvZ2n9mC5iAlq--vm-328" value="" style="endArrow=classic;html=1;rounded=0;exitX=0;exitY=0.571;exitDx=0;exitDy=0;exitPerimeter=0;entryX=1.024;entryY=0.578;entryDx=0;entryDy=0;entryPerimeter=0;movable=0;resizable=0;rotatable=0;deletable=0;editable=0;locked=1;connectable=0;" edge="1" parent="1" source="7G_IvZ2n9mC5iAlq--vm-324" target="7G_IvZ2n9mC5iAlq--vm-323">
          <mxGeometry width="50" height="50" relative="1" as="geometry">
            <mxPoint x="350" y="920" as="sourcePoint" />
            <mxPoint x="400" y="870" as="targetPoint" />
          </mxGeometry>
        </mxCell>
        <mxCell id="7G_IvZ2n9mC5iAlq--vm-329" value="" style="endArrow=classic;html=1;rounded=0;entryX=0;entryY=1;entryDx=0;entryDy=0;movable=0;resizable=0;rotatable=0;deletable=0;editable=0;locked=1;connectable=0;" edge="1" parent="1" target="7G_IvZ2n9mC5iAlq--vm-322">
          <mxGeometry width="50" height="50" relative="1" as="geometry">
            <mxPoint x="210" y="950" as="sourcePoint" />
            <mxPoint x="380" y="850" as="targetPoint" />
          </mxGeometry>
        </mxCell>
        <mxCell id="7G_IvZ2n9mC5iAlq--vm-330" value="" style="endArrow=classic;html=1;rounded=0;entryX=1;entryY=0;entryDx=0;entryDy=0;movable=0;resizable=0;rotatable=0;deletable=0;editable=0;locked=1;connectable=0;" edge="1" parent="1" target="7G_IvZ2n9mC5iAlq--vm-323">
          <mxGeometry width="50" height="50" relative="1" as="geometry">
            <mxPoint x="395.25" y="850" as="sourcePoint" />
            <mxPoint x="239.9987373415305" y="970.2512626584696" as="targetPoint" />
          </mxGeometry>
        </mxCell>
        <mxCell id="7G_IvZ2n9mC5iAlq--vm-331" value="Cache hit" style="text;html=1;align=center;verticalAlign=middle;resizable=0;points=[];autosize=1;strokeColor=none;fillColor=none;movable=0;rotatable=0;deletable=0;editable=0;locked=1;connectable=0;" vertex="1" parent="1">
          <mxGeometry x="270" y="780" width="70" height="30" as="geometry" />
        </mxCell>
        <mxCell id="7G_IvZ2n9mC5iAlq--vm-332" value="Valid CPU request" style="text;html=1;align=center;verticalAlign=middle;resizable=0;points=[];autosize=1;strokeColor=none;fillColor=none;movable=0;rotatable=0;deletable=0;editable=0;locked=1;connectable=0;" vertex="1" parent="1">
          <mxGeometry x="240" y="830" width="120" height="30" as="geometry" />
        </mxCell>
        <mxCell id="7G_IvZ2n9mC5iAlq--vm-333" value="mem ready" style="text;html=1;align=center;verticalAlign=middle;resizable=0;points=[];autosize=1;strokeColor=none;fillColor=none;rotation=-30;movable=0;rotatable=0;deletable=0;editable=0;locked=1;connectable=0;" vertex="1" parent="1">
          <mxGeometry x="235" y="880" width="80" height="30" as="geometry" />
        </mxCell>
        <mxCell id="7G_IvZ2n9mC5iAlq--vm-335" value="Cache miss &amp;amp;&lt;div&gt;&amp;nbsp;old block clean&lt;/div&gt;" style="text;html=1;align=center;verticalAlign=middle;resizable=0;points=[];autosize=1;strokeColor=none;fillColor=none;rotation=-30;movable=0;rotatable=0;deletable=0;editable=0;locked=1;connectable=0;" vertex="1" parent="1">
          <mxGeometry x="270" y="895" width="110" height="40" as="geometry" />
        </mxCell>
        <mxCell id="7G_IvZ2n9mC5iAlq--vm-336" value="mem ready" style="text;html=1;align=center;verticalAlign=middle;resizable=0;points=[];autosize=1;strokeColor=none;fillColor=none;movable=0;rotatable=0;deletable=0;editable=0;locked=1;connectable=0;" vertex="1" parent="1">
          <mxGeometry x="270" y="960" width="80" height="30" as="geometry" />
        </mxCell>
        <mxCell id="7G_IvZ2n9mC5iAlq--vm-337" value="Cache miss &amp;amp;&amp;nbsp;&lt;div&gt;old block dirty&lt;/div&gt;" style="text;html=1;align=center;verticalAlign=middle;resizable=0;points=[];autosize=1;strokeColor=none;fillColor=none;rotation=-90;movable=0;rotatable=0;deletable=0;editable=0;locked=1;connectable=0;" vertex="1" parent="1">
          <mxGeometry x="370" y="880" width="100" height="40" as="geometry" />
        </mxCell>
        <mxCell id="7G_IvZ2n9mC5iAlq--vm-338" value="" style="curved=1;endArrow=classic;html=1;rounded=0;entryX=0;entryY=1;entryDx=0;entryDy=0;exitX=0.643;exitY=0.978;exitDx=0;exitDy=0;exitPerimeter=0;movable=0;resizable=0;rotatable=0;deletable=0;editable=0;locked=1;connectable=0;" edge="1" parent="1" source="7G_IvZ2n9mC5iAlq--vm-324" target="7G_IvZ2n9mC5iAlq--vm-324">
          <mxGeometry width="50" height="50" relative="1" as="geometry">
            <mxPoint x="340" y="1070" as="sourcePoint" />
            <mxPoint x="390" y="1020" as="targetPoint" />
            <Array as="points">
              <mxPoint x="390" y="1070" />
              <mxPoint x="340" y="1020" />
            </Array>
          </mxGeometry>
        </mxCell>
        <mxCell id="7G_IvZ2n9mC5iAlq--vm-339" value="mem not ready" style="text;html=1;align=center;verticalAlign=middle;resizable=0;points=[];autosize=1;strokeColor=none;fillColor=none;movable=0;rotatable=0;deletable=0;editable=0;locked=1;connectable=0;" vertex="1" parent="1">
          <mxGeometry x="330" y="1050" width="100" height="30" as="geometry" />
        </mxCell>
        <mxCell id="7G_IvZ2n9mC5iAlq--vm-340" value="" style="curved=1;endArrow=classic;html=1;rounded=0;entryX=0;entryY=1;entryDx=0;entryDy=0;exitX=0.643;exitY=0.978;exitDx=0;exitDy=0;exitPerimeter=0;movable=0;resizable=0;rotatable=0;deletable=0;editable=0;locked=1;connectable=0;" edge="1" parent="1">
          <mxGeometry width="50" height="50" relative="1" as="geometry">
            <mxPoint x="210" y="1018" as="sourcePoint" />
            <mxPoint x="175" y="1010" as="targetPoint" />
            <Array as="points">
              <mxPoint x="185" y="1070" />
              <mxPoint x="135" y="1020" />
            </Array>
          </mxGeometry>
        </mxCell>
        <mxCell id="7G_IvZ2n9mC5iAlq--vm-341" value="mem not ready" style="text;html=1;align=center;verticalAlign=middle;resizable=0;points=[];autosize=1;strokeColor=none;fillColor=none;movable=0;rotatable=0;deletable=0;editable=0;locked=1;connectable=0;" vertex="1" parent="1">
          <mxGeometry x="125" y="1050" width="100" height="30" as="geometry" />
        </mxCell>
        <mxCell id="7G_IvZ2n9mC5iAlq--vm-343" value="Cache controller FSM" style="text;html=1;align=center;verticalAlign=middle;resizable=0;points=[];autosize=1;strokeColor=none;fillColor=none;fontSize=19;fontStyle=1" vertex="1" parent="1">
          <mxGeometry x="205" y="710" width="210" height="40" as="geometry" />
        </mxCell>
        <mxCell id="7G_IvZ2n9mC5iAlq--vm-344" value="IDLE: wait state" style="text;html=1;align=center;verticalAlign=middle;resizable=0;points=[];autosize=1;strokeColor=none;fillColor=none;" vertex="1" parent="1">
          <mxGeometry x="465" y="780" width="110" height="30" as="geometry" />
        </mxCell>
        <mxCell id="7G_IvZ2n9mC5iAlq--vm-345" value="Compare Tag: compare state" style="text;html=1;align=center;verticalAlign=middle;resizable=0;points=[];autosize=1;strokeColor=none;fillColor=none;" vertex="1" parent="1">
          <mxGeometry x="465" y="820" width="180" height="30" as="geometry" />
        </mxCell>
        <mxCell id="7G_IvZ2n9mC5iAlq--vm-346" value="Allocate: read new block from memory" style="text;html=1;align=center;verticalAlign=middle;resizable=0;points=[];autosize=1;strokeColor=none;fillColor=none;" vertex="1" parent="1">
          <mxGeometry x="465" y="860" width="230" height="30" as="geometry" />
        </mxCell>
        <mxCell id="7G_IvZ2n9mC5iAlq--vm-347" value="Write back: write old block to memory" style="text;html=1;align=center;verticalAlign=middle;resizable=0;points=[];autosize=1;strokeColor=none;fillColor=none;" vertex="1" parent="1">
          <mxGeometry x="470" y="900" width="220" height="30" as="geometry" />
        </mxCell>
        <mxCell id="7G_IvZ2n9mC5iAlq--vm-348" value="RISC-V Core" style="rounded=0;whiteSpace=wrap;html=1;movable=0;resizable=0;rotatable=0;deletable=0;editable=0;locked=1;connectable=0;fontStyle=1" vertex="1" parent="1">
          <mxGeometry x="895" y="800" width="90" height="130" as="geometry" />
        </mxCell>
        <mxCell id="7G_IvZ2n9mC5iAlq--vm-349" value="Cache" style="rounded=0;whiteSpace=wrap;html=1;movable=0;resizable=0;rotatable=0;deletable=0;editable=0;locked=1;connectable=0;fontStyle=1" vertex="1" parent="1">
          <mxGeometry x="1095" y="835" width="60" height="70" as="geometry" />
        </mxCell>
        <mxCell id="7G_IvZ2n9mC5iAlq--vm-350" value="Memory" style="rounded=0;whiteSpace=wrap;html=1;movable=0;resizable=0;rotatable=0;deletable=0;editable=0;locked=1;connectable=0;fontStyle=1" vertex="1" parent="1">
          <mxGeometry x="1265" y="800" width="90" height="130" as="geometry" />
        </mxCell>
        <mxCell id="7G_IvZ2n9mC5iAlq--vm-351" value="" style="endArrow=classic;html=1;rounded=0;entryX=-0.019;entryY=0.073;entryDx=0;entryDy=0;entryPerimeter=0;movable=0;resizable=0;rotatable=0;deletable=0;editable=0;locked=1;connectable=0;" edge="1" parent="1" target="7G_IvZ2n9mC5iAlq--vm-349">
          <mxGeometry width="50" height="50" relative="1" as="geometry">
            <mxPoint x="985" y="840" as="sourcePoint" />
            <mxPoint x="1035" y="790" as="targetPoint" />
          </mxGeometry>
        </mxCell>
        <mxCell id="7G_IvZ2n9mC5iAlq--vm-352" value="" style="endArrow=classic;html=1;rounded=0;entryX=0;entryY=0.5;entryDx=0;entryDy=0;exitX=0;exitY=0.5;exitDx=0;exitDy=0;movable=0;resizable=0;rotatable=0;deletable=0;editable=0;locked=1;connectable=0;" edge="1" parent="1" source="7G_IvZ2n9mC5iAlq--vm-349">
          <mxGeometry width="50" height="50" relative="1" as="geometry">
            <mxPoint x="1035" y="820" as="sourcePoint" />
            <mxPoint x="985" y="870" as="targetPoint" />
          </mxGeometry>
        </mxCell>
        <mxCell id="7G_IvZ2n9mC5iAlq--vm-353" value="" style="endArrow=classic;html=1;rounded=0;entryX=0;entryY=0.5;entryDx=0;entryDy=0;movable=0;resizable=0;rotatable=0;deletable=0;editable=0;locked=1;connectable=0;" edge="1" parent="1">
          <mxGeometry width="50" height="50" relative="1" as="geometry">
            <mxPoint x="1095" y="900" as="sourcePoint" />
            <mxPoint x="985" y="900" as="targetPoint" />
          </mxGeometry>
        </mxCell>
        <mxCell id="7G_IvZ2n9mC5iAlq--vm-354" value="" style="endArrow=classic;html=1;rounded=0;entryX=-0.019;entryY=0.073;entryDx=0;entryDy=0;entryPerimeter=0;movable=0;resizable=0;rotatable=0;deletable=0;editable=0;locked=1;connectable=0;" edge="1" parent="1">
          <mxGeometry width="50" height="50" relative="1" as="geometry">
            <mxPoint x="1156" y="840" as="sourcePoint" />
            <mxPoint x="1265" y="840" as="targetPoint" />
          </mxGeometry>
        </mxCell>
        <mxCell id="7G_IvZ2n9mC5iAlq--vm-356" value="" style="endArrow=classic;html=1;rounded=0;entryX=0;entryY=0.5;entryDx=0;entryDy=0;movable=0;resizable=0;rotatable=0;deletable=0;editable=0;locked=1;connectable=0;" edge="1" parent="1">
          <mxGeometry width="50" height="50" relative="1" as="geometry">
            <mxPoint x="1265" y="899.31" as="sourcePoint" />
            <mxPoint x="1155" y="899.31" as="targetPoint" />
          </mxGeometry>
        </mxCell>
        <mxCell id="7G_IvZ2n9mC5iAlq--vm-357" value="CPU request" style="text;html=1;align=center;verticalAlign=middle;resizable=0;points=[];autosize=1;strokeColor=none;fillColor=none;movable=0;rotatable=0;deletable=0;editable=0;locked=1;connectable=0;" vertex="1" parent="1">
          <mxGeometry x="995" y="820" width="90" height="30" as="geometry" />
        </mxCell>
        <mxCell id="7G_IvZ2n9mC5iAlq--vm-358" value="CPU result" style="text;html=1;align=center;verticalAlign=middle;resizable=0;points=[];autosize=1;strokeColor=none;fillColor=none;movable=0;rotatable=0;deletable=0;editable=0;locked=1;connectable=0;" vertex="1" parent="1">
          <mxGeometry x="995" y="850" width="80" height="30" as="geometry" />
        </mxCell>
        <mxCell id="7G_IvZ2n9mC5iAlq--vm-359" value="Stall by cache" style="text;html=1;align=center;verticalAlign=middle;resizable=0;points=[];autosize=1;strokeColor=none;fillColor=none;movable=0;rotatable=0;deletable=0;editable=0;locked=1;connectable=0;" vertex="1" parent="1">
          <mxGeometry x="990" y="880" width="100" height="30" as="geometry" />
        </mxCell>
        <mxCell id="7G_IvZ2n9mC5iAlq--vm-360" value="mem request" style="text;html=1;align=center;verticalAlign=middle;resizable=0;points=[];autosize=1;strokeColor=none;fillColor=none;movable=0;rotatable=0;deletable=0;editable=0;locked=1;connectable=0;" vertex="1" parent="1">
          <mxGeometry x="1155" y="820" width="90" height="30" as="geometry" />
        </mxCell>
        <mxCell id="7G_IvZ2n9mC5iAlq--vm-361" value="mem data" style="text;html=1;align=center;verticalAlign=middle;resizable=0;points=[];autosize=1;strokeColor=none;fillColor=none;movable=0;rotatable=0;deletable=0;editable=0;locked=1;connectable=0;" vertex="1" parent="1">
          <mxGeometry x="1165" y="875" width="80" height="30" as="geometry" />
        </mxCell>
        <mxCell id="7G_IvZ2n9mC5iAlq--vm-362" value="Connections among core, cache, memory" style="text;html=1;align=center;verticalAlign=middle;resizable=0;points=[];autosize=1;strokeColor=none;fillColor=none;fontSize=19;fontStyle=1" vertex="1" parent="1">
          <mxGeometry x="932.5" y="730" width="380" height="40" as="geometry" />
        </mxCell>
        <mxCell id="7G_IvZ2n9mC5iAlq--vm-363" value="Cache Controller" style="rounded=0;whiteSpace=wrap;html=1;fontStyle=1" vertex="1" parent="1">
          <mxGeometry x="140" y="1202" width="95" height="230" as="geometry" />
        </mxCell>
        <mxCell id="7G_IvZ2n9mC5iAlq--vm-364" value="Cache array" style="rounded=0;whiteSpace=wrap;html=1;fontStyle=1" vertex="1" parent="1">
          <mxGeometry x="335" y="1202" width="95" height="230" as="geometry" />
        </mxCell>
        <mxCell id="7G_IvZ2n9mC5iAlq--vm-365" value="pLRU" style="rounded=0;whiteSpace=wrap;html=1;fontStyle=1" vertex="1" parent="1">
          <mxGeometry x="525" y="1242" width="65" height="100" as="geometry" />
        </mxCell>
        <mxCell id="7G_IvZ2n9mC5iAlq--vm-366" value="" style="endArrow=classic;html=1;rounded=0;entryX=0;entryY=0.105;entryDx=0;entryDy=0;entryPerimeter=0;" edge="1" parent="1">
          <mxGeometry width="50" height="50" relative="1" as="geometry">
            <mxPoint x="235" y="1212.05" as="sourcePoint" />
            <mxPoint x="335" y="1212" as="targetPoint" />
          </mxGeometry>
        </mxCell>
        <mxCell id="7G_IvZ2n9mC5iAlq--vm-367" value="" style="endArrow=classic;html=1;rounded=0;exitX=1.005;exitY=0.176;exitDx=0;exitDy=0;exitPerimeter=0;" edge="1" parent="1" source="7G_IvZ2n9mC5iAlq--vm-363">
          <mxGeometry width="50" height="50" relative="1" as="geometry">
            <mxPoint x="235" y="1232.05" as="sourcePoint" />
            <mxPoint x="335" y="1242" as="targetPoint" />
          </mxGeometry>
        </mxCell>
        <mxCell id="7G_IvZ2n9mC5iAlq--vm-368" value="" style="endArrow=classic;html=1;rounded=0;entryX=0;entryY=0.105;entryDx=0;entryDy=0;entryPerimeter=0;" edge="1" parent="1">
          <mxGeometry width="50" height="50" relative="1" as="geometry">
            <mxPoint x="235" y="1272.05" as="sourcePoint" />
            <mxPoint x="335" y="1272" as="targetPoint" />
          </mxGeometry>
        </mxCell>
        <mxCell id="7G_IvZ2n9mC5iAlq--vm-369" value="" style="endArrow=classic;html=1;rounded=0;entryX=0;entryY=0.105;entryDx=0;entryDy=0;entryPerimeter=0;" edge="1" parent="1">
          <mxGeometry width="50" height="50" relative="1" as="geometry">
            <mxPoint x="335" y="1302" as="sourcePoint" />
            <mxPoint x="235" y="1302.05" as="targetPoint" />
          </mxGeometry>
        </mxCell>
        <mxCell id="7G_IvZ2n9mC5iAlq--vm-370" value="" style="endArrow=classic;html=1;rounded=0;entryX=0;entryY=0.105;entryDx=0;entryDy=0;entryPerimeter=0;" edge="1" parent="1">
          <mxGeometry width="50" height="50" relative="1" as="geometry">
            <mxPoint x="235" y="1332.05" as="sourcePoint" />
            <mxPoint x="335" y="1332" as="targetPoint" />
          </mxGeometry>
        </mxCell>
        <mxCell id="7G_IvZ2n9mC5iAlq--vm-371" value="" style="endArrow=classic;html=1;rounded=0;entryX=0;entryY=0.105;entryDx=0;entryDy=0;entryPerimeter=0;" edge="1" parent="1">
          <mxGeometry width="50" height="50" relative="1" as="geometry">
            <mxPoint x="235" y="1362.05" as="sourcePoint" />
            <mxPoint x="335" y="1362" as="targetPoint" />
          </mxGeometry>
        </mxCell>
        <mxCell id="7G_IvZ2n9mC5iAlq--vm-372" value="" style="endArrow=classic;html=1;rounded=0;entryX=0;entryY=0.105;entryDx=0;entryDy=0;entryPerimeter=0;" edge="1" parent="1">
          <mxGeometry width="50" height="50" relative="1" as="geometry">
            <mxPoint x="335" y="1392" as="sourcePoint" />
            <mxPoint x="235" y="1392.05" as="targetPoint" />
          </mxGeometry>
        </mxCell>
        <mxCell id="7G_IvZ2n9mC5iAlq--vm-373" value="" style="endArrow=classic;html=1;rounded=0;entryX=0;entryY=0.105;entryDx=0;entryDy=0;entryPerimeter=0;" edge="1" parent="1">
          <mxGeometry width="50" height="50" relative="1" as="geometry">
            <mxPoint x="335" y="1422" as="sourcePoint" />
            <mxPoint x="235" y="1422.05" as="targetPoint" />
          </mxGeometry>
        </mxCell>
        <mxCell id="7G_IvZ2n9mC5iAlq--vm-376" value="" style="endArrow=classic;html=1;rounded=0;entryX=0;entryY=0.5;entryDx=0;entryDy=0;" edge="1" parent="1" target="7G_IvZ2n9mC5iAlq--vm-365">
          <mxGeometry width="50" height="50" relative="1" as="geometry">
            <mxPoint x="430" y="1292" as="sourcePoint" />
            <mxPoint x="480" y="1242" as="targetPoint" />
          </mxGeometry>
        </mxCell>
        <mxCell id="7G_IvZ2n9mC5iAlq--vm-377" value="" style="endArrow=classic;html=1;rounded=0;entryX=0;entryY=0.45;entryDx=0;entryDy=0;entryPerimeter=0;" edge="1" parent="1">
          <mxGeometry width="50" height="50" relative="1" as="geometry">
            <mxPoint x="525" y="1322" as="sourcePoint" />
            <mxPoint x="430" y="1322" as="targetPoint" />
          </mxGeometry>
        </mxCell>
        <mxCell id="7G_IvZ2n9mC5iAlq--vm-378" value="" style="endArrow=classic;html=1;rounded=0;entryX=0;entryY=0.5;entryDx=0;entryDy=0;" edge="1" parent="1">
          <mxGeometry width="50" height="50" relative="1" as="geometry">
            <mxPoint x="430" y="1262" as="sourcePoint" />
            <mxPoint x="525" y="1262" as="targetPoint" />
          </mxGeometry>
        </mxCell>
        <mxCell id="7G_IvZ2n9mC5iAlq--vm-379" value="cpu address" style="text;html=1;align=center;verticalAlign=middle;resizable=0;points=[];autosize=1;strokeColor=none;fillColor=none;" vertex="1" parent="1">
          <mxGeometry x="235" y="1190" width="90" height="30" as="geometry" />
        </mxCell>
        <mxCell id="7G_IvZ2n9mC5iAlq--vm-380" value="tag request" style="text;html=1;align=center;verticalAlign=middle;resizable=0;points=[];autosize=1;strokeColor=none;fillColor=none;" vertex="1" parent="1">
          <mxGeometry x="240" y="1220" width="80" height="30" as="geometry" />
        </mxCell>
        <mxCell id="7G_IvZ2n9mC5iAlq--vm-381" value="tag write" style="text;html=1;align=center;verticalAlign=middle;resizable=0;points=[];autosize=1;strokeColor=none;fillColor=none;" vertex="1" parent="1">
          <mxGeometry x="240" y="1250" width="70" height="30" as="geometry" />
        </mxCell>
        <mxCell id="7G_IvZ2n9mC5iAlq--vm-382" value="tag read" style="text;html=1;align=center;verticalAlign=middle;resizable=0;points=[];autosize=1;strokeColor=none;fillColor=none;" vertex="1" parent="1">
          <mxGeometry x="240" y="1280" width="70" height="30" as="geometry" />
        </mxCell>
        <mxCell id="7G_IvZ2n9mC5iAlq--vm-384" value="data request" style="text;html=1;align=center;verticalAlign=middle;resizable=0;points=[];autosize=1;strokeColor=none;fillColor=none;" vertex="1" parent="1">
          <mxGeometry x="235" y="1312" width="90" height="30" as="geometry" />
        </mxCell>
        <mxCell id="7G_IvZ2n9mC5iAlq--vm-385" value="data write" style="text;html=1;align=center;verticalAlign=middle;resizable=0;points=[];autosize=1;strokeColor=none;fillColor=none;" vertex="1" parent="1">
          <mxGeometry x="235" y="1342" width="80" height="30" as="geometry" />
        </mxCell>
        <mxCell id="7G_IvZ2n9mC5iAlq--vm-386" value="data read" style="text;html=1;align=center;verticalAlign=middle;resizable=0;points=[];autosize=1;strokeColor=none;fillColor=none;" vertex="1" parent="1">
          <mxGeometry x="240" y="1372" width="70" height="30" as="geometry" />
        </mxCell>
        <mxCell id="7G_IvZ2n9mC5iAlq--vm-387" value="full way" style="text;html=1;align=center;verticalAlign=middle;resizable=0;points=[];autosize=1;strokeColor=none;fillColor=none;" vertex="1" parent="1">
          <mxGeometry x="245" y="1402" width="60" height="30" as="geometry" />
        </mxCell>
        <mxCell id="7G_IvZ2n9mC5iAlq--vm-388" value="address a2p" style="text;html=1;align=center;verticalAlign=middle;resizable=0;points=[];autosize=1;strokeColor=none;fillColor=none;" vertex="1" parent="1">
          <mxGeometry x="430" y="1242" width="90" height="30" as="geometry" />
        </mxCell>
        <mxCell id="7G_IvZ2n9mC5iAlq--vm-389" value="index" style="text;html=1;align=center;verticalAlign=middle;resizable=0;points=[];autosize=1;strokeColor=none;fillColor=none;" vertex="1" parent="1">
          <mxGeometry x="440" y="1272" width="50" height="30" as="geometry" />
        </mxCell>
        <mxCell id="7G_IvZ2n9mC5iAlq--vm-390" value="address p2a" style="text;html=1;align=center;verticalAlign=middle;resizable=0;points=[];autosize=1;strokeColor=none;fillColor=none;" vertex="1" parent="1">
          <mxGeometry x="435" y="1302" width="90" height="30" as="geometry" />
        </mxCell>
        <mxCell id="7G_IvZ2n9mC5iAlq--vm-391" value="Connections in cache" style="text;html=1;align=center;verticalAlign=middle;resizable=0;points=[];autosize=1;strokeColor=none;fillColor=none;fontSize=19;fontStyle=1" vertex="1" parent="1">
          <mxGeometry x="190" y="1140" width="210" height="40" as="geometry" />
        </mxCell>
        <mxCell id="7G_IvZ2n9mC5iAlq--vm-392" value="L0" style="ellipse;whiteSpace=wrap;html=1;aspect=fixed;fontStyle=1;movable=0;resizable=0;rotatable=0;deletable=0;editable=0;locked=1;connectable=0;" vertex="1" parent="1">
          <mxGeometry x="1145" y="1117" width="40" height="40" as="geometry" />
        </mxCell>
        <mxCell id="7G_IvZ2n9mC5iAlq--vm-393" value="L1" style="ellipse;whiteSpace=wrap;html=1;aspect=fixed;fontStyle=1;movable=0;resizable=0;rotatable=0;deletable=0;editable=0;locked=1;connectable=0;" vertex="1" parent="1">
          <mxGeometry x="985" y="1199" width="40" height="40" as="geometry" />
        </mxCell>
        <mxCell id="7G_IvZ2n9mC5iAlq--vm-395" value="L2" style="ellipse;whiteSpace=wrap;html=1;aspect=fixed;fontStyle=1;movable=0;resizable=0;rotatable=0;deletable=0;editable=0;locked=1;connectable=0;" vertex="1" parent="1">
          <mxGeometry x="1305" y="1199" width="40" height="40" as="geometry" />
        </mxCell>
        <mxCell id="7G_IvZ2n9mC5iAlq--vm-396" value="L3" style="ellipse;whiteSpace=wrap;html=1;aspect=fixed;fontStyle=1;movable=0;resizable=0;rotatable=0;deletable=0;editable=0;locked=1;connectable=0;" vertex="1" parent="1">
          <mxGeometry x="905" y="1277" width="40" height="40" as="geometry" />
        </mxCell>
        <mxCell id="7G_IvZ2n9mC5iAlq--vm-397" value="L4" style="ellipse;whiteSpace=wrap;html=1;aspect=fixed;fontStyle=1;movable=0;resizable=0;rotatable=0;deletable=0;editable=0;locked=1;connectable=0;" vertex="1" parent="1">
          <mxGeometry x="1065" y="1277" width="40" height="40" as="geometry" />
        </mxCell>
        <mxCell id="7G_IvZ2n9mC5iAlq--vm-398" value="L5" style="ellipse;whiteSpace=wrap;html=1;aspect=fixed;fontStyle=1;movable=0;resizable=0;rotatable=0;deletable=0;editable=0;locked=1;connectable=0;" vertex="1" parent="1">
          <mxGeometry x="1225" y="1277" width="40" height="40" as="geometry" />
        </mxCell>
        <mxCell id="7G_IvZ2n9mC5iAlq--vm-399" value="L6" style="ellipse;whiteSpace=wrap;html=1;aspect=fixed;fontStyle=1;movable=0;resizable=0;rotatable=0;deletable=0;editable=0;locked=1;connectable=0;" vertex="1" parent="1">
          <mxGeometry x="1385" y="1277" width="40" height="40" as="geometry" />
        </mxCell>
        <mxCell id="7G_IvZ2n9mC5iAlq--vm-400" value="" style="rounded=0;whiteSpace=wrap;html=1;fontStyle=1;movable=0;resizable=0;rotatable=0;deletable=0;editable=0;locked=1;connectable=0;" vertex="1" parent="1">
          <mxGeometry x="845" y="1357" width="640" height="40" as="geometry" />
        </mxCell>
        <mxCell id="7G_IvZ2n9mC5iAlq--vm-401" value="" style="endArrow=none;html=1;rounded=0;fontStyle=1;movable=0;resizable=0;rotatable=0;deletable=0;editable=0;locked=1;connectable=0;" edge="1" parent="1">
          <mxGeometry width="50" height="50" relative="1" as="geometry">
            <mxPoint x="925" y="1397" as="sourcePoint" />
            <mxPoint x="925" y="1357" as="targetPoint" />
          </mxGeometry>
        </mxCell>
        <mxCell id="7G_IvZ2n9mC5iAlq--vm-402" value="" style="endArrow=none;html=1;rounded=0;fontStyle=1;movable=0;resizable=0;rotatable=0;deletable=0;editable=0;locked=1;connectable=0;" edge="1" parent="1">
          <mxGeometry width="50" height="50" relative="1" as="geometry">
            <mxPoint x="1004.76" y="1397" as="sourcePoint" />
            <mxPoint x="1004.76" y="1357" as="targetPoint" />
          </mxGeometry>
        </mxCell>
        <mxCell id="7G_IvZ2n9mC5iAlq--vm-403" value="" style="endArrow=none;html=1;rounded=0;fontStyle=1;movable=0;resizable=0;rotatable=0;deletable=0;editable=0;locked=1;connectable=0;" edge="1" parent="1">
          <mxGeometry width="50" height="50" relative="1" as="geometry">
            <mxPoint x="1084.76" y="1397" as="sourcePoint" />
            <mxPoint x="1084.76" y="1357" as="targetPoint" />
          </mxGeometry>
        </mxCell>
        <mxCell id="7G_IvZ2n9mC5iAlq--vm-404" value="" style="endArrow=none;html=1;rounded=0;fontStyle=1;movable=0;resizable=0;rotatable=0;deletable=0;editable=0;locked=1;connectable=0;" edge="1" parent="1">
          <mxGeometry width="50" height="50" relative="1" as="geometry">
            <mxPoint x="1165" y="1397" as="sourcePoint" />
            <mxPoint x="1165" y="1357" as="targetPoint" />
          </mxGeometry>
        </mxCell>
        <mxCell id="7G_IvZ2n9mC5iAlq--vm-405" value="" style="endArrow=none;html=1;rounded=0;fontStyle=1;movable=0;resizable=0;rotatable=0;deletable=0;editable=0;locked=1;connectable=0;" edge="1" parent="1">
          <mxGeometry width="50" height="50" relative="1" as="geometry">
            <mxPoint x="1244.76" y="1397" as="sourcePoint" />
            <mxPoint x="1244.76" y="1357" as="targetPoint" />
          </mxGeometry>
        </mxCell>
        <mxCell id="7G_IvZ2n9mC5iAlq--vm-406" value="" style="endArrow=none;html=1;rounded=0;fontStyle=1;movable=0;resizable=0;rotatable=0;deletable=0;editable=0;locked=1;connectable=0;" edge="1" parent="1">
          <mxGeometry width="50" height="50" relative="1" as="geometry">
            <mxPoint x="1324.76" y="1397" as="sourcePoint" />
            <mxPoint x="1324.76" y="1357" as="targetPoint" />
          </mxGeometry>
        </mxCell>
        <mxCell id="7G_IvZ2n9mC5iAlq--vm-407" value="" style="endArrow=none;html=1;rounded=0;fontStyle=1;movable=0;resizable=0;rotatable=0;deletable=0;editable=0;locked=1;connectable=0;" edge="1" parent="1">
          <mxGeometry width="50" height="50" relative="1" as="geometry">
            <mxPoint x="1404.76" y="1397" as="sourcePoint" />
            <mxPoint x="1404.76" y="1357" as="targetPoint" />
          </mxGeometry>
        </mxCell>
        <mxCell id="7G_IvZ2n9mC5iAlq--vm-408" value="" style="endArrow=classic;html=1;rounded=0;entryX=0.063;entryY=0;entryDx=0;entryDy=0;entryPerimeter=0;fontStyle=1;movable=0;resizable=0;rotatable=0;deletable=0;editable=0;locked=1;connectable=0;" edge="1" parent="1" target="7G_IvZ2n9mC5iAlq--vm-400">
          <mxGeometry width="50" height="50" relative="1" as="geometry">
            <mxPoint x="910" y="1309" as="sourcePoint" />
            <mxPoint x="960" y="1259" as="targetPoint" />
          </mxGeometry>
        </mxCell>
        <mxCell id="7G_IvZ2n9mC5iAlq--vm-409" value="" style="endArrow=classic;html=1;rounded=0;entryX=0.188;entryY=0.008;entryDx=0;entryDy=0;entryPerimeter=0;exitX=0.93;exitY=0.77;exitDx=0;exitDy=0;exitPerimeter=0;fontStyle=1;movable=0;resizable=0;rotatable=0;deletable=0;editable=0;locked=1;connectable=0;" edge="1" parent="1" source="7G_IvZ2n9mC5iAlq--vm-396" target="7G_IvZ2n9mC5iAlq--vm-400">
          <mxGeometry width="50" height="50" relative="1" as="geometry">
            <mxPoint x="920" y="1319" as="sourcePoint" />
            <mxPoint x="895" y="1367" as="targetPoint" />
          </mxGeometry>
        </mxCell>
        <mxCell id="7G_IvZ2n9mC5iAlq--vm-410" value="" style="endArrow=classic;html=1;rounded=0;entryX=0.063;entryY=0;entryDx=0;entryDy=0;entryPerimeter=0;fontStyle=1;movable=0;resizable=0;rotatable=0;deletable=0;editable=0;locked=1;connectable=0;" edge="1" parent="1">
          <mxGeometry width="50" height="50" relative="1" as="geometry">
            <mxPoint x="1070" y="1310" as="sourcePoint" />
            <mxPoint x="1045" y="1358" as="targetPoint" />
          </mxGeometry>
        </mxCell>
        <mxCell id="7G_IvZ2n9mC5iAlq--vm-411" value="" style="endArrow=classic;html=1;rounded=0;entryX=0.188;entryY=0.008;entryDx=0;entryDy=0;entryPerimeter=0;exitX=0.93;exitY=0.77;exitDx=0;exitDy=0;exitPerimeter=0;fontStyle=1;movable=0;resizable=0;rotatable=0;deletable=0;editable=0;locked=1;connectable=0;" edge="1" parent="1">
          <mxGeometry width="50" height="50" relative="1" as="geometry">
            <mxPoint x="1102" y="1309" as="sourcePoint" />
            <mxPoint x="1125" y="1358" as="targetPoint" />
          </mxGeometry>
        </mxCell>
        <mxCell id="7G_IvZ2n9mC5iAlq--vm-412" value="" style="endArrow=classic;html=1;rounded=0;entryX=0.063;entryY=0;entryDx=0;entryDy=0;entryPerimeter=0;fontStyle=1;movable=0;resizable=0;rotatable=0;deletable=0;editable=0;locked=1;connectable=0;" edge="1" parent="1">
          <mxGeometry width="50" height="50" relative="1" as="geometry">
            <mxPoint x="1230" y="1310" as="sourcePoint" />
            <mxPoint x="1205" y="1358" as="targetPoint" />
          </mxGeometry>
        </mxCell>
        <mxCell id="7G_IvZ2n9mC5iAlq--vm-413" value="" style="endArrow=classic;html=1;rounded=0;entryX=0.188;entryY=0.008;entryDx=0;entryDy=0;entryPerimeter=0;exitX=0.93;exitY=0.77;exitDx=0;exitDy=0;exitPerimeter=0;fontStyle=1;movable=0;resizable=0;rotatable=0;deletable=0;editable=0;locked=1;connectable=0;" edge="1" parent="1">
          <mxGeometry width="50" height="50" relative="1" as="geometry">
            <mxPoint x="1262" y="1309" as="sourcePoint" />
            <mxPoint x="1285" y="1358" as="targetPoint" />
          </mxGeometry>
        </mxCell>
        <mxCell id="7G_IvZ2n9mC5iAlq--vm-414" value="" style="endArrow=classic;html=1;rounded=0;entryX=0.063;entryY=0;entryDx=0;entryDy=0;entryPerimeter=0;fontStyle=1;movable=0;resizable=0;rotatable=0;deletable=0;editable=0;locked=1;connectable=0;" edge="1" parent="1">
          <mxGeometry width="50" height="50" relative="1" as="geometry">
            <mxPoint x="1390" y="1310" as="sourcePoint" />
            <mxPoint x="1365" y="1358" as="targetPoint" />
          </mxGeometry>
        </mxCell>
        <mxCell id="7G_IvZ2n9mC5iAlq--vm-415" value="" style="endArrow=classic;html=1;rounded=0;entryX=0.188;entryY=0.008;entryDx=0;entryDy=0;entryPerimeter=0;exitX=0.93;exitY=0.77;exitDx=0;exitDy=0;exitPerimeter=0;fontStyle=1;movable=0;resizable=0;rotatable=0;deletable=0;editable=0;locked=1;connectable=0;" edge="1" parent="1">
          <mxGeometry width="50" height="50" relative="1" as="geometry">
            <mxPoint x="1422" y="1309" as="sourcePoint" />
            <mxPoint x="1445" y="1358" as="targetPoint" />
          </mxGeometry>
        </mxCell>
        <mxCell id="7G_IvZ2n9mC5iAlq--vm-424" value="" style="endArrow=classic;html=1;rounded=0;entryX=0.5;entryY=0;entryDx=0;entryDy=0;fontStyle=1;movable=0;resizable=0;rotatable=0;deletable=0;editable=0;locked=1;connectable=0;" edge="1" parent="1" target="7G_IvZ2n9mC5iAlq--vm-396">
          <mxGeometry width="50" height="50" relative="1" as="geometry">
            <mxPoint x="987.5" y="1227" as="sourcePoint" />
            <mxPoint x="1037.5" y="1177" as="targetPoint" />
          </mxGeometry>
        </mxCell>
        <mxCell id="7G_IvZ2n9mC5iAlq--vm-425" value="" style="endArrow=classic;html=1;rounded=0;entryX=0.5;entryY=0;entryDx=0;entryDy=0;exitX=0.95;exitY=0.715;exitDx=0;exitDy=0;exitPerimeter=0;fontStyle=1;movable=0;resizable=0;rotatable=0;deletable=0;editable=0;locked=1;connectable=0;" edge="1" parent="1" source="7G_IvZ2n9mC5iAlq--vm-393" target="7G_IvZ2n9mC5iAlq--vm-397">
          <mxGeometry width="50" height="50" relative="1" as="geometry">
            <mxPoint x="1025" y="1227" as="sourcePoint" />
            <mxPoint x="1075" y="1177" as="targetPoint" />
          </mxGeometry>
        </mxCell>
        <mxCell id="7G_IvZ2n9mC5iAlq--vm-426" value="" style="endArrow=classic;html=1;rounded=0;fontStyle=1;movable=0;resizable=0;rotatable=0;deletable=0;editable=0;locked=1;connectable=0;" edge="1" parent="1">
          <mxGeometry width="50" height="50" relative="1" as="geometry">
            <mxPoint x="1307.5" y="1229" as="sourcePoint" />
            <mxPoint x="1245" y="1277" as="targetPoint" />
          </mxGeometry>
        </mxCell>
        <mxCell id="7G_IvZ2n9mC5iAlq--vm-427" value="" style="endArrow=classic;html=1;rounded=0;exitX=0.95;exitY=0.715;exitDx=0;exitDy=0;exitPerimeter=0;fontStyle=1;movable=0;resizable=0;rotatable=0;deletable=0;editable=0;locked=1;connectable=0;" edge="1" parent="1">
          <mxGeometry width="50" height="50" relative="1" as="geometry">
            <mxPoint x="1343" y="1230" as="sourcePoint" />
            <mxPoint x="1405" y="1277" as="targetPoint" />
          </mxGeometry>
        </mxCell>
        <mxCell id="7G_IvZ2n9mC5iAlq--vm-428" value="" style="endArrow=classic;html=1;rounded=0;entryX=0.5;entryY=0;entryDx=0;entryDy=0;exitX=0;exitY=0.5;exitDx=0;exitDy=0;fontStyle=1;movable=0;resizable=0;rotatable=0;deletable=0;editable=0;locked=1;connectable=0;" edge="1" parent="1" source="7G_IvZ2n9mC5iAlq--vm-392" target="7G_IvZ2n9mC5iAlq--vm-393">
          <mxGeometry width="50" height="50" relative="1" as="geometry">
            <mxPoint x="1144" y="1147" as="sourcePoint" />
            <mxPoint x="1205" y="1167" as="targetPoint" />
          </mxGeometry>
        </mxCell>
        <mxCell id="7G_IvZ2n9mC5iAlq--vm-429" value="" style="endArrow=classic;html=1;rounded=0;fontStyle=1;movable=0;resizable=0;rotatable=0;deletable=0;editable=0;locked=1;connectable=0;" edge="1" parent="1">
          <mxGeometry width="50" height="50" relative="1" as="geometry">
            <mxPoint x="1185" y="1137" as="sourcePoint" />
            <mxPoint x="1325" y="1197" as="targetPoint" />
          </mxGeometry>
        </mxCell>
        <mxCell id="7G_IvZ2n9mC5iAlq--vm-430" value="8 WAYS" style="text;html=1;align=center;verticalAlign=middle;resizable=0;points=[];autosize=1;strokeColor=none;fillColor=none;fontStyle=1;movable=0;rotatable=0;deletable=0;editable=0;locked=1;connectable=0;" vertex="1" parent="1">
          <mxGeometry x="760" y="1362" width="70" height="30" as="geometry" />
        </mxCell>
        <mxCell id="7G_IvZ2n9mC5iAlq--vm-431" value="B0" style="text;html=1;align=center;verticalAlign=middle;resizable=0;points=[];autosize=1;strokeColor=none;fillColor=none;fontStyle=1;movable=0;rotatable=0;deletable=0;editable=0;locked=1;connectable=0;" vertex="1" parent="1">
          <mxGeometry x="865" y="1362" width="40" height="30" as="geometry" />
        </mxCell>
        <mxCell id="7G_IvZ2n9mC5iAlq--vm-432" value="B1" style="text;html=1;align=center;verticalAlign=middle;resizable=0;points=[];autosize=1;strokeColor=none;fillColor=none;fontStyle=1;movable=0;rotatable=0;deletable=0;editable=0;locked=1;connectable=0;" vertex="1" parent="1">
          <mxGeometry x="945" y="1362" width="40" height="30" as="geometry" />
        </mxCell>
        <mxCell id="7G_IvZ2n9mC5iAlq--vm-433" value="B2" style="text;html=1;align=center;verticalAlign=middle;resizable=0;points=[];autosize=1;strokeColor=none;fillColor=none;fontStyle=1;movable=0;rotatable=0;deletable=0;editable=0;locked=1;connectable=0;" vertex="1" parent="1">
          <mxGeometry x="1025" y="1362" width="40" height="30" as="geometry" />
        </mxCell>
        <mxCell id="7G_IvZ2n9mC5iAlq--vm-434" value="B3" style="text;html=1;align=center;verticalAlign=middle;resizable=0;points=[];autosize=1;strokeColor=none;fillColor=none;fontStyle=1;movable=0;rotatable=0;deletable=0;editable=0;locked=1;connectable=0;" vertex="1" parent="1">
          <mxGeometry x="1105" y="1362" width="40" height="30" as="geometry" />
        </mxCell>
        <mxCell id="7G_IvZ2n9mC5iAlq--vm-435" value="B4" style="text;html=1;align=center;verticalAlign=middle;resizable=0;points=[];autosize=1;strokeColor=none;fillColor=none;fontStyle=1;movable=0;rotatable=0;deletable=0;editable=0;locked=1;connectable=0;" vertex="1" parent="1">
          <mxGeometry x="1185" y="1362" width="40" height="30" as="geometry" />
        </mxCell>
        <mxCell id="7G_IvZ2n9mC5iAlq--vm-436" value="B5" style="text;html=1;align=center;verticalAlign=middle;resizable=0;points=[];autosize=1;strokeColor=none;fillColor=none;fontStyle=1;movable=0;rotatable=0;deletable=0;editable=0;locked=1;connectable=0;" vertex="1" parent="1">
          <mxGeometry x="1265" y="1362" width="40" height="30" as="geometry" />
        </mxCell>
        <mxCell id="7G_IvZ2n9mC5iAlq--vm-438" value="B6" style="text;html=1;align=center;verticalAlign=middle;resizable=0;points=[];autosize=1;strokeColor=none;fillColor=none;fontStyle=1;movable=0;rotatable=0;deletable=0;editable=0;locked=1;connectable=0;" vertex="1" parent="1">
          <mxGeometry x="1345" y="1362" width="40" height="30" as="geometry" />
        </mxCell>
        <mxCell id="7G_IvZ2n9mC5iAlq--vm-439" value="B7" style="text;html=1;align=center;verticalAlign=middle;resizable=0;points=[];autosize=1;strokeColor=none;fillColor=none;fontStyle=1;movable=0;rotatable=0;deletable=0;editable=0;locked=1;connectable=0;" vertex="1" parent="1">
          <mxGeometry x="1420" y="1362" width="40" height="30" as="geometry" />
        </mxCell>
        <mxCell id="7G_IvZ2n9mC5iAlq--vm-440" value="pLRU tree" style="text;html=1;align=center;verticalAlign=middle;resizable=0;points=[];autosize=1;strokeColor=none;fillColor=none;fontStyle=1;fontSize=19;" vertex="1" parent="1">
          <mxGeometry x="1105" y="1045" width="110" height="40" as="geometry" />
        </mxCell>
        <mxCell id="7G_IvZ2n9mC5iAlq--vm-441" value="" style="endArrow=none;html=1;rounded=0;" edge="1" parent="1">
          <mxGeometry width="50" height="50" relative="1" as="geometry">
            <mxPoint x="1610" y="1289" as="sourcePoint" />
            <mxPoint x="1700" y="1289" as="targetPoint" />
          </mxGeometry>
        </mxCell>
        <mxCell id="7G_IvZ2n9mC5iAlq--vm-442" value="" style="endArrow=none;html=1;rounded=0;" edge="1" parent="1">
          <mxGeometry width="50" height="50" relative="1" as="geometry">
            <mxPoint x="1630" y="1309" as="sourcePoint" />
            <mxPoint x="1680" y="1309" as="targetPoint" />
          </mxGeometry>
        </mxCell>
        <mxCell id="7G_IvZ2n9mC5iAlq--vm-443" value="" style="endArrow=none;html=1;rounded=0;" edge="1" parent="1">
          <mxGeometry width="50" height="50" relative="1" as="geometry">
            <mxPoint x="1630" y="1309" as="sourcePoint" />
            <mxPoint x="1610" y="1289" as="targetPoint" />
          </mxGeometry>
        </mxCell>
        <mxCell id="7G_IvZ2n9mC5iAlq--vm-444" value="" style="endArrow=none;html=1;rounded=0;" edge="1" parent="1">
          <mxGeometry width="50" height="50" relative="1" as="geometry">
            <mxPoint x="1680" y="1309" as="sourcePoint" />
            <mxPoint x="1700" y="1289" as="targetPoint" />
          </mxGeometry>
        </mxCell>
        <mxCell id="7G_IvZ2n9mC5iAlq--vm-447" value="" style="endArrow=classic;html=1;rounded=0;" edge="1" parent="1">
          <mxGeometry width="50" height="50" relative="1" as="geometry">
            <mxPoint x="1630" y="1269" as="sourcePoint" />
            <mxPoint x="1630" y="1289" as="targetPoint" />
          </mxGeometry>
        </mxCell>
        <mxCell id="7G_IvZ2n9mC5iAlq--vm-448" value="" style="endArrow=classic;html=1;rounded=0;" edge="1" parent="1">
          <mxGeometry width="50" height="50" relative="1" as="geometry">
            <mxPoint x="1675" y="1269" as="sourcePoint" />
            <mxPoint x="1675" y="1289" as="targetPoint" />
          </mxGeometry>
        </mxCell>
        <mxCell id="7G_IvZ2n9mC5iAlq--vm-449" value="" style="endArrow=none;html=1;rounded=0;" edge="1" parent="1">
          <mxGeometry width="50" height="50" relative="1" as="geometry">
            <mxPoint x="1780" y="1289" as="sourcePoint" />
            <mxPoint x="1940" y="1289" as="targetPoint" />
          </mxGeometry>
        </mxCell>
        <mxCell id="7G_IvZ2n9mC5iAlq--vm-450" value="" style="endArrow=none;html=1;rounded=0;" edge="1" parent="1">
          <mxGeometry width="50" height="50" relative="1" as="geometry">
            <mxPoint x="1800" y="1309" as="sourcePoint" />
            <mxPoint x="1920" y="1309" as="targetPoint" />
          </mxGeometry>
        </mxCell>
        <mxCell id="7G_IvZ2n9mC5iAlq--vm-451" value="" style="endArrow=none;html=1;rounded=0;" edge="1" parent="1">
          <mxGeometry width="50" height="50" relative="1" as="geometry">
            <mxPoint x="1800" y="1309" as="sourcePoint" />
            <mxPoint x="1780" y="1289" as="targetPoint" />
          </mxGeometry>
        </mxCell>
        <mxCell id="7G_IvZ2n9mC5iAlq--vm-452" value="" style="endArrow=none;html=1;rounded=0;" edge="1" parent="1">
          <mxGeometry width="50" height="50" relative="1" as="geometry">
            <mxPoint x="1920" y="1309" as="sourcePoint" />
            <mxPoint x="1940" y="1289" as="targetPoint" />
          </mxGeometry>
        </mxCell>
        <mxCell id="7G_IvZ2n9mC5iAlq--vm-453" value="" style="endArrow=classic;html=1;rounded=0;" edge="1" parent="1">
          <mxGeometry width="50" height="50" relative="1" as="geometry">
            <mxPoint x="1800" y="1269" as="sourcePoint" />
            <mxPoint x="1800" y="1289" as="targetPoint" />
          </mxGeometry>
        </mxCell>
        <mxCell id="7G_IvZ2n9mC5iAlq--vm-454" value="" style="endArrow=classic;html=1;rounded=0;" edge="1" parent="1">
          <mxGeometry width="50" height="50" relative="1" as="geometry">
            <mxPoint x="1845" y="1269" as="sourcePoint" />
            <mxPoint x="1845" y="1289" as="targetPoint" />
          </mxGeometry>
        </mxCell>
        <mxCell id="7G_IvZ2n9mC5iAlq--vm-455" value="" style="endArrow=classic;html=1;rounded=0;" edge="1" parent="1">
          <mxGeometry width="50" height="50" relative="1" as="geometry">
            <mxPoint x="1885" y="1269" as="sourcePoint" />
            <mxPoint x="1885" y="1289" as="targetPoint" />
          </mxGeometry>
        </mxCell>
        <mxCell id="7G_IvZ2n9mC5iAlq--vm-456" value="" style="endArrow=classic;html=1;rounded=0;" edge="1" parent="1">
          <mxGeometry width="50" height="50" relative="1" as="geometry">
            <mxPoint x="1925" y="1269" as="sourcePoint" />
            <mxPoint x="1925" y="1289" as="targetPoint" />
          </mxGeometry>
        </mxCell>
        <mxCell id="7G_IvZ2n9mC5iAlq--vm-457" value="" style="endArrow=classic;html=1;rounded=0;" edge="1" parent="1">
          <mxGeometry width="50" height="50" relative="1" as="geometry">
            <mxPoint x="1720" y="1299" as="sourcePoint" />
            <mxPoint x="1790" y="1299" as="targetPoint" />
          </mxGeometry>
        </mxCell>
        <mxCell id="7G_IvZ2n9mC5iAlq--vm-458" value="" style="endArrow=classic;html=1;rounded=0;" edge="1" parent="1">
          <mxGeometry width="50" height="50" relative="1" as="geometry">
            <mxPoint x="1740" y="1309" as="sourcePoint" />
            <mxPoint x="1800" y="1309" as="targetPoint" />
          </mxGeometry>
        </mxCell>
        <mxCell id="7G_IvZ2n9mC5iAlq--vm-459" value="" style="endArrow=classic;html=1;rounded=0;" edge="1" parent="1">
          <mxGeometry width="50" height="50" relative="1" as="geometry">
            <mxPoint x="1655" y="1309" as="sourcePoint" />
            <mxPoint x="1655" y="1369" as="targetPoint" />
          </mxGeometry>
        </mxCell>
        <mxCell id="7G_IvZ2n9mC5iAlq--vm-460" value="" style="endArrow=classic;html=1;rounded=0;" edge="1" parent="1">
          <mxGeometry width="50" height="50" relative="1" as="geometry">
            <mxPoint x="1860" y="1309" as="sourcePoint" />
            <mxPoint x="1860" y="1369" as="targetPoint" />
          </mxGeometry>
        </mxCell>
        <mxCell id="7G_IvZ2n9mC5iAlq--vm-461" value="" style="endArrow=classic;html=1;rounded=0;" edge="1" parent="1">
          <mxGeometry width="50" height="50" relative="1" as="geometry">
            <mxPoint x="1580" y="1299" as="sourcePoint" />
            <mxPoint x="1620" y="1299" as="targetPoint" />
          </mxGeometry>
        </mxCell>
        <mxCell id="7G_IvZ2n9mC5iAlq--vm-462" value="" style="endArrow=none;html=1;rounded=0;" edge="1" parent="1">
          <mxGeometry width="50" height="50" relative="1" as="geometry">
            <mxPoint x="1580" y="1319" as="sourcePoint" />
            <mxPoint x="1720" y="1319" as="targetPoint" />
          </mxGeometry>
        </mxCell>
        <mxCell id="7G_IvZ2n9mC5iAlq--vm-463" value="" style="endArrow=none;html=1;rounded=0;" edge="1" parent="1">
          <mxGeometry width="50" height="50" relative="1" as="geometry">
            <mxPoint x="1655" y="1329" as="sourcePoint" />
            <mxPoint x="1740" y="1329" as="targetPoint" />
          </mxGeometry>
        </mxCell>
        <mxCell id="7G_IvZ2n9mC5iAlq--vm-464" value="" style="endArrow=none;html=1;rounded=0;" edge="1" parent="1">
          <mxGeometry width="50" height="50" relative="1" as="geometry">
            <mxPoint x="1740" y="1329" as="sourcePoint" />
            <mxPoint x="1740" y="1309" as="targetPoint" />
          </mxGeometry>
        </mxCell>
        <mxCell id="7G_IvZ2n9mC5iAlq--vm-465" value="" style="endArrow=none;html=1;rounded=0;" edge="1" parent="1">
          <mxGeometry width="50" height="50" relative="1" as="geometry">
            <mxPoint x="1720" y="1319" as="sourcePoint" />
            <mxPoint x="1720" y="1299" as="targetPoint" />
          </mxGeometry>
        </mxCell>
        <mxCell id="7G_IvZ2n9mC5iAlq--vm-466" value="" style="endArrow=classic;html=1;rounded=0;" edge="1" parent="1">
          <mxGeometry width="50" height="50" relative="1" as="geometry">
            <mxPoint x="1580" y="1269" as="sourcePoint" />
            <mxPoint x="1580" y="1369" as="targetPoint" />
          </mxGeometry>
        </mxCell>
        <mxCell id="7G_IvZ2n9mC5iAlq--vm-467" value="~L0" style="text;html=1;align=center;verticalAlign=middle;resizable=0;points=[];autosize=1;strokeColor=none;fillColor=none;" vertex="1" parent="1">
          <mxGeometry x="1555" y="1247" width="40" height="30" as="geometry" />
        </mxCell>
        <mxCell id="7G_IvZ2n9mC5iAlq--vm-468" value="~L1" style="text;html=1;align=center;verticalAlign=middle;resizable=0;points=[];autosize=1;strokeColor=none;fillColor=none;" vertex="1" parent="1">
          <mxGeometry x="1605" y="1247" width="40" height="30" as="geometry" />
        </mxCell>
        <mxCell id="7G_IvZ2n9mC5iAlq--vm-469" value="~L2" style="text;html=1;align=center;verticalAlign=middle;resizable=0;points=[];autosize=1;strokeColor=none;fillColor=none;" vertex="1" parent="1">
          <mxGeometry x="1650" y="1247" width="40" height="30" as="geometry" />
        </mxCell>
        <mxCell id="7G_IvZ2n9mC5iAlq--vm-470" value="~L3" style="text;html=1;align=center;verticalAlign=middle;resizable=0;points=[];autosize=1;strokeColor=none;fillColor=none;" vertex="1" parent="1">
          <mxGeometry x="1775" y="1247" width="40" height="30" as="geometry" />
        </mxCell>
        <mxCell id="7G_IvZ2n9mC5iAlq--vm-471" value="~L4" style="text;html=1;align=center;verticalAlign=middle;resizable=0;points=[];autosize=1;strokeColor=none;fillColor=none;" vertex="1" parent="1">
          <mxGeometry x="1820" y="1247" width="40" height="30" as="geometry" />
        </mxCell>
        <mxCell id="7G_IvZ2n9mC5iAlq--vm-472" value="~L5" style="text;html=1;align=center;verticalAlign=middle;resizable=0;points=[];autosize=1;strokeColor=none;fillColor=none;" vertex="1" parent="1">
          <mxGeometry x="1860" y="1247" width="40" height="30" as="geometry" />
        </mxCell>
        <mxCell id="7G_IvZ2n9mC5iAlq--vm-473" value="~L6" style="text;html=1;align=center;verticalAlign=middle;resizable=0;points=[];autosize=1;strokeColor=none;fillColor=none;" vertex="1" parent="1">
          <mxGeometry x="1900" y="1247" width="40" height="30" as="geometry" />
        </mxCell>
        <mxCell id="7G_IvZ2n9mC5iAlq--vm-474" value="LRU[2]" style="text;html=1;align=center;verticalAlign=middle;resizable=0;points=[];autosize=1;strokeColor=none;fillColor=none;" vertex="1" parent="1">
          <mxGeometry x="1550" y="1367" width="60" height="30" as="geometry" />
        </mxCell>
        <mxCell id="7G_IvZ2n9mC5iAlq--vm-475" value="LRU[1]" style="text;html=1;align=center;verticalAlign=middle;resizable=0;points=[];autosize=1;strokeColor=none;fillColor=none;" vertex="1" parent="1">
          <mxGeometry x="1630" y="1367" width="60" height="30" as="geometry" />
        </mxCell>
        <mxCell id="7G_IvZ2n9mC5iAlq--vm-476" value="LRU[0]" style="text;html=1;align=center;verticalAlign=middle;resizable=0;points=[];autosize=1;strokeColor=none;fillColor=none;" vertex="1" parent="1">
          <mxGeometry x="1825" y="1367" width="60" height="30" as="geometry" />
        </mxCell>
        <mxCell id="7G_IvZ2n9mC5iAlq--vm-477" value="" style="endArrow=classic;html=1;rounded=0;" edge="1" parent="1">
          <mxGeometry width="50" height="50" relative="1" as="geometry">
            <mxPoint x="545" y="1450" as="sourcePoint" />
            <mxPoint x="545" y="1342" as="targetPoint" />
          </mxGeometry>
        </mxCell>
        <mxCell id="7G_IvZ2n9mC5iAlq--vm-478" value="" style="endArrow=none;html=1;rounded=0;" edge="1" parent="1">
          <mxGeometry width="50" height="50" relative="1" as="geometry">
            <mxPoint x="220" y="1450" as="sourcePoint" />
            <mxPoint x="545" y="1450" as="targetPoint" />
          </mxGeometry>
        </mxCell>
        <mxCell id="7G_IvZ2n9mC5iAlq--vm-479" value="" style="endArrow=none;html=1;rounded=0;" edge="1" parent="1">
          <mxGeometry width="50" height="50" relative="1" as="geometry">
            <mxPoint x="220" y="1450" as="sourcePoint" />
            <mxPoint x="220" y="1432" as="targetPoint" />
          </mxGeometry>
        </mxCell>
        <mxCell id="7G_IvZ2n9mC5iAlq--vm-480" value="lru valid" style="text;html=1;align=center;verticalAlign=middle;resizable=0;points=[];autosize=1;strokeColor=none;fillColor=none;" vertex="1" parent="1">
          <mxGeometry x="450" y="1430" width="60" height="30" as="geometry" />
        </mxCell>
        <mxCell id="7G_IvZ2n9mC5iAlq--vm-481" value="" style="rounded=0;whiteSpace=wrap;html=1;" vertex="1" parent="1">
          <mxGeometry x="85" y="1680" width="440" height="40" as="geometry" />
        </mxCell>
        <mxCell id="7G_IvZ2n9mC5iAlq--vm-482" value="" style="endArrow=none;html=1;rounded=0;" edge="1" parent="1">
          <mxGeometry width="50" height="50" relative="1" as="geometry">
            <mxPoint x="125" y="1720" as="sourcePoint" />
            <mxPoint x="125" y="1680" as="targetPoint" />
          </mxGeometry>
        </mxCell>
        <mxCell id="7G_IvZ2n9mC5iAlq--vm-483" value="valid" style="text;html=1;align=center;verticalAlign=middle;resizable=0;points=[];autosize=1;strokeColor=none;fillColor=none;" vertex="1" parent="1">
          <mxGeometry x="80" y="1685" width="50" height="30" as="geometry" />
        </mxCell>
        <mxCell id="7G_IvZ2n9mC5iAlq--vm-484" value="dirty" style="text;html=1;align=center;verticalAlign=middle;resizable=0;points=[];autosize=1;strokeColor=none;fillColor=none;" vertex="1" parent="1">
          <mxGeometry x="120" y="1685" width="50" height="30" as="geometry" />
        </mxCell>
        <mxCell id="7G_IvZ2n9mC5iAlq--vm-485" value="" style="endArrow=none;html=1;rounded=0;exitX=0.182;exitY=1.012;exitDx=0;exitDy=0;exitPerimeter=0;" edge="1" parent="1" source="7G_IvZ2n9mC5iAlq--vm-481">
          <mxGeometry width="50" height="50" relative="1" as="geometry">
            <mxPoint x="115" y="1730" as="sourcePoint" />
            <mxPoint x="165" y="1680" as="targetPoint" />
          </mxGeometry>
        </mxCell>
        <mxCell id="7G_IvZ2n9mC5iAlq--vm-486" value="tag" style="text;html=1;align=center;verticalAlign=middle;resizable=0;points=[];autosize=1;strokeColor=none;fillColor=none;" vertex="1" parent="1">
          <mxGeometry x="225" y="1685" width="40" height="30" as="geometry" />
        </mxCell>
        <mxCell id="7G_IvZ2n9mC5iAlq--vm-487" value="" style="endArrow=none;html=1;rounded=0;" edge="1" parent="1">
          <mxGeometry width="50" height="50" relative="1" as="geometry">
            <mxPoint x="325" y="1721" as="sourcePoint" />
            <mxPoint x="325" y="1680" as="targetPoint" />
          </mxGeometry>
        </mxCell>
        <mxCell id="7G_IvZ2n9mC5iAlq--vm-488" value="" style="endArrow=none;html=1;rounded=0;" edge="1" parent="1">
          <mxGeometry width="50" height="50" relative="1" as="geometry">
            <mxPoint x="605" y="1720" as="sourcePoint" />
            <mxPoint x="605" y="1680" as="targetPoint" />
          </mxGeometry>
        </mxCell>
        <mxCell id="7G_IvZ2n9mC5iAlq--vm-489" value="data" style="text;html=1;align=center;verticalAlign=middle;resizable=0;points=[];autosize=1;strokeColor=none;fillColor=none;" vertex="1" parent="1">
          <mxGeometry x="400" y="1685" width="50" height="30" as="geometry" />
        </mxCell>
        <mxCell id="7G_IvZ2n9mC5iAlq--vm-490" value="" style="rounded=0;whiteSpace=wrap;html=1;" vertex="1" parent="1">
          <mxGeometry x="604.0899999999999" y="1680" width="440" height="40" as="geometry" />
        </mxCell>
        <mxCell id="7G_IvZ2n9mC5iAlq--vm-491" value="" style="endArrow=none;html=1;rounded=0;" edge="1" parent="1">
          <mxGeometry width="50" height="50" relative="1" as="geometry">
            <mxPoint x="644.0899999999999" y="1720" as="sourcePoint" />
            <mxPoint x="644.0899999999999" y="1680" as="targetPoint" />
          </mxGeometry>
        </mxCell>
        <mxCell id="7G_IvZ2n9mC5iAlq--vm-492" value="valid" style="text;html=1;align=center;verticalAlign=middle;resizable=0;points=[];autosize=1;strokeColor=none;fillColor=none;" vertex="1" parent="1">
          <mxGeometry x="599.0899999999999" y="1685" width="50" height="30" as="geometry" />
        </mxCell>
        <mxCell id="7G_IvZ2n9mC5iAlq--vm-493" value="dirty" style="text;html=1;align=center;verticalAlign=middle;resizable=0;points=[];autosize=1;strokeColor=none;fillColor=none;" vertex="1" parent="1">
          <mxGeometry x="639.0899999999999" y="1685" width="50" height="30" as="geometry" />
        </mxCell>
        <mxCell id="7G_IvZ2n9mC5iAlq--vm-494" value="" style="endArrow=none;html=1;rounded=0;exitX=0.182;exitY=1.012;exitDx=0;exitDy=0;exitPerimeter=0;" edge="1" parent="1" source="7G_IvZ2n9mC5iAlq--vm-490">
          <mxGeometry width="50" height="50" relative="1" as="geometry">
            <mxPoint x="634.0899999999999" y="1730" as="sourcePoint" />
            <mxPoint x="684.0899999999999" y="1680" as="targetPoint" />
          </mxGeometry>
        </mxCell>
        <mxCell id="7G_IvZ2n9mC5iAlq--vm-495" value="tag" style="text;html=1;align=center;verticalAlign=middle;resizable=0;points=[];autosize=1;strokeColor=none;fillColor=none;" vertex="1" parent="1">
          <mxGeometry x="744.0899999999999" y="1685" width="40" height="30" as="geometry" />
        </mxCell>
        <mxCell id="7G_IvZ2n9mC5iAlq--vm-496" value="" style="endArrow=none;html=1;rounded=0;" edge="1" parent="1">
          <mxGeometry width="50" height="50" relative="1" as="geometry">
            <mxPoint x="844.0899999999999" y="1721" as="sourcePoint" />
            <mxPoint x="844.0899999999999" y="1680" as="targetPoint" />
          </mxGeometry>
        </mxCell>
        <mxCell id="7G_IvZ2n9mC5iAlq--vm-497" value="" style="endArrow=none;html=1;rounded=0;" edge="1" parent="1">
          <mxGeometry width="50" height="50" relative="1" as="geometry">
            <mxPoint x="1044.09" y="1720" as="sourcePoint" />
            <mxPoint x="1044.09" y="1680" as="targetPoint" />
          </mxGeometry>
        </mxCell>
        <mxCell id="7G_IvZ2n9mC5iAlq--vm-498" value="data" style="text;html=1;align=center;verticalAlign=middle;resizable=0;points=[];autosize=1;strokeColor=none;fillColor=none;" vertex="1" parent="1">
          <mxGeometry x="919.0899999999999" y="1685" width="50" height="30" as="geometry" />
        </mxCell>
        <mxCell id="7G_IvZ2n9mC5iAlq--vm-499" value="" style="endArrow=none;dashed=1;html=1;dashPattern=1 3;strokeWidth=2;rounded=0;" edge="1" parent="1">
          <mxGeometry width="50" height="50" relative="1" as="geometry">
            <mxPoint x="555" y="1699.55" as="sourcePoint" />
            <mxPoint x="575" y="1699.55" as="targetPoint" />
          </mxGeometry>
        </mxCell>
        <mxCell id="7G_IvZ2n9mC5iAlq--vm-500" value="" style="rounded=0;whiteSpace=wrap;html=1;" vertex="1" parent="1">
          <mxGeometry x="85" y="1800" width="440" height="40" as="geometry" />
        </mxCell>
        <mxCell id="7G_IvZ2n9mC5iAlq--vm-501" value="" style="endArrow=none;html=1;rounded=0;" edge="1" parent="1">
          <mxGeometry width="50" height="50" relative="1" as="geometry">
            <mxPoint x="125" y="1840" as="sourcePoint" />
            <mxPoint x="125" y="1800" as="targetPoint" />
          </mxGeometry>
        </mxCell>
        <mxCell id="7G_IvZ2n9mC5iAlq--vm-502" value="valid" style="text;html=1;align=center;verticalAlign=middle;resizable=0;points=[];autosize=1;strokeColor=none;fillColor=none;" vertex="1" parent="1">
          <mxGeometry x="80" y="1805" width="50" height="30" as="geometry" />
        </mxCell>
        <mxCell id="7G_IvZ2n9mC5iAlq--vm-503" value="dirty" style="text;html=1;align=center;verticalAlign=middle;resizable=0;points=[];autosize=1;strokeColor=none;fillColor=none;" vertex="1" parent="1">
          <mxGeometry x="120" y="1805" width="50" height="30" as="geometry" />
        </mxCell>
        <mxCell id="7G_IvZ2n9mC5iAlq--vm-504" value="" style="endArrow=none;html=1;rounded=0;exitX=0.182;exitY=1.012;exitDx=0;exitDy=0;exitPerimeter=0;" edge="1" parent="1" source="7G_IvZ2n9mC5iAlq--vm-500">
          <mxGeometry width="50" height="50" relative="1" as="geometry">
            <mxPoint x="115" y="1850" as="sourcePoint" />
            <mxPoint x="165" y="1800" as="targetPoint" />
          </mxGeometry>
        </mxCell>
        <mxCell id="7G_IvZ2n9mC5iAlq--vm-505" value="tag" style="text;html=1;align=center;verticalAlign=middle;resizable=0;points=[];autosize=1;strokeColor=none;fillColor=none;" vertex="1" parent="1">
          <mxGeometry x="225" y="1805" width="40" height="30" as="geometry" />
        </mxCell>
        <mxCell id="7G_IvZ2n9mC5iAlq--vm-506" value="" style="endArrow=none;html=1;rounded=0;" edge="1" parent="1">
          <mxGeometry width="50" height="50" relative="1" as="geometry">
            <mxPoint x="325" y="1841" as="sourcePoint" />
            <mxPoint x="325" y="1800" as="targetPoint" />
          </mxGeometry>
        </mxCell>
        <mxCell id="7G_IvZ2n9mC5iAlq--vm-507" value="" style="endArrow=none;html=1;rounded=0;" edge="1" parent="1">
          <mxGeometry width="50" height="50" relative="1" as="geometry">
            <mxPoint x="605" y="1840" as="sourcePoint" />
            <mxPoint x="605" y="1800" as="targetPoint" />
          </mxGeometry>
        </mxCell>
        <mxCell id="7G_IvZ2n9mC5iAlq--vm-508" value="data" style="text;html=1;align=center;verticalAlign=middle;resizable=0;points=[];autosize=1;strokeColor=none;fillColor=none;" vertex="1" parent="1">
          <mxGeometry x="400" y="1805" width="50" height="30" as="geometry" />
        </mxCell>
        <mxCell id="7G_IvZ2n9mC5iAlq--vm-509" value="" style="rounded=0;whiteSpace=wrap;html=1;" vertex="1" parent="1">
          <mxGeometry x="604.0899999999999" y="1800" width="440" height="40" as="geometry" />
        </mxCell>
        <mxCell id="7G_IvZ2n9mC5iAlq--vm-510" value="" style="endArrow=none;html=1;rounded=0;" edge="1" parent="1">
          <mxGeometry width="50" height="50" relative="1" as="geometry">
            <mxPoint x="644.0899999999999" y="1840" as="sourcePoint" />
            <mxPoint x="644.0899999999999" y="1800" as="targetPoint" />
          </mxGeometry>
        </mxCell>
        <mxCell id="7G_IvZ2n9mC5iAlq--vm-511" value="valid" style="text;html=1;align=center;verticalAlign=middle;resizable=0;points=[];autosize=1;strokeColor=none;fillColor=none;" vertex="1" parent="1">
          <mxGeometry x="599.0899999999999" y="1805" width="50" height="30" as="geometry" />
        </mxCell>
        <mxCell id="7G_IvZ2n9mC5iAlq--vm-512" value="dirty" style="text;html=1;align=center;verticalAlign=middle;resizable=0;points=[];autosize=1;strokeColor=none;fillColor=none;" vertex="1" parent="1">
          <mxGeometry x="639.0899999999999" y="1805" width="50" height="30" as="geometry" />
        </mxCell>
        <mxCell id="7G_IvZ2n9mC5iAlq--vm-513" value="" style="endArrow=none;html=1;rounded=0;exitX=0.182;exitY=1.012;exitDx=0;exitDy=0;exitPerimeter=0;" edge="1" parent="1" source="7G_IvZ2n9mC5iAlq--vm-509">
          <mxGeometry width="50" height="50" relative="1" as="geometry">
            <mxPoint x="634.0899999999999" y="1850" as="sourcePoint" />
            <mxPoint x="684.0899999999999" y="1800" as="targetPoint" />
          </mxGeometry>
        </mxCell>
        <mxCell id="7G_IvZ2n9mC5iAlq--vm-514" value="tag" style="text;html=1;align=center;verticalAlign=middle;resizable=0;points=[];autosize=1;strokeColor=none;fillColor=none;" vertex="1" parent="1">
          <mxGeometry x="744.0899999999999" y="1805" width="40" height="30" as="geometry" />
        </mxCell>
        <mxCell id="7G_IvZ2n9mC5iAlq--vm-515" value="" style="endArrow=none;html=1;rounded=0;" edge="1" parent="1">
          <mxGeometry width="50" height="50" relative="1" as="geometry">
            <mxPoint x="844.0899999999999" y="1841" as="sourcePoint" />
            <mxPoint x="844.0899999999999" y="1800" as="targetPoint" />
          </mxGeometry>
        </mxCell>
        <mxCell id="7G_IvZ2n9mC5iAlq--vm-516" value="" style="endArrow=none;html=1;rounded=0;" edge="1" parent="1">
          <mxGeometry width="50" height="50" relative="1" as="geometry">
            <mxPoint x="1044.09" y="1840" as="sourcePoint" />
            <mxPoint x="1044.09" y="1800" as="targetPoint" />
          </mxGeometry>
        </mxCell>
        <mxCell id="7G_IvZ2n9mC5iAlq--vm-517" value="data" style="text;html=1;align=center;verticalAlign=middle;resizable=0;points=[];autosize=1;strokeColor=none;fillColor=none;" vertex="1" parent="1">
          <mxGeometry x="919.0899999999999" y="1805" width="50" height="30" as="geometry" />
        </mxCell>
        <mxCell id="7G_IvZ2n9mC5iAlq--vm-518" value="" style="endArrow=none;dashed=1;html=1;dashPattern=1 3;strokeWidth=2;rounded=0;" edge="1" parent="1">
          <mxGeometry width="50" height="50" relative="1" as="geometry">
            <mxPoint x="555" y="1819.55" as="sourcePoint" />
            <mxPoint x="575" y="1819.55" as="targetPoint" />
          </mxGeometry>
        </mxCell>
        <mxCell id="7G_IvZ2n9mC5iAlq--vm-519" value="" style="endArrow=none;dashed=1;html=1;dashPattern=1 3;strokeWidth=2;rounded=0;" edge="1" parent="1">
          <mxGeometry width="50" height="50" relative="1" as="geometry">
            <mxPoint x="104.62" y="1750" as="sourcePoint" />
            <mxPoint x="104.62" y="1770" as="targetPoint" />
          </mxGeometry>
        </mxCell>
        <mxCell id="7G_IvZ2n9mC5iAlq--vm-520" value="Cache structure" style="text;html=1;align=center;verticalAlign=middle;resizable=0;points=[];autosize=1;strokeColor=none;fillColor=none;fontSize=19;fontStyle=1" vertex="1" parent="1">
          <mxGeometry x="490" y="1570" width="160" height="40" as="geometry" />
        </mxCell>
        <mxCell id="7G_IvZ2n9mC5iAlq--vm-521" value="index" style="text;html=1;align=center;verticalAlign=middle;resizable=0;points=[];autosize=1;strokeColor=none;fillColor=none;rotation=-90;fontSize=15;fontStyle=1" vertex="1" parent="1">
          <mxGeometry x="30" y="1740" width="60" height="30" as="geometry" />
        </mxCell>
        <mxCell id="7G_IvZ2n9mC5iAlq--vm-522" value="ways" style="text;html=1;align=center;verticalAlign=middle;resizable=0;points=[];autosize=1;strokeColor=none;fillColor=none;fontStyle=1;fontSize=15;" vertex="1" parent="1">
          <mxGeometry x="530" y="1638" width="60" height="30" as="geometry" />
        </mxCell>
        <mxCell id="7G_IvZ2n9mC5iAlq--vm-523" value="valid: 1 bit" style="text;html=1;align=center;verticalAlign=middle;resizable=0;points=[];autosize=1;strokeColor=none;fillColor=none;" vertex="1" parent="1">
          <mxGeometry x="70" y="1900" width="80" height="30" as="geometry" />
        </mxCell>
        <mxCell id="7G_IvZ2n9mC5iAlq--vm-524" value="dirty: 1 bit" style="text;html=1;align=center;verticalAlign=middle;resizable=0;points=[];autosize=1;strokeColor=none;fillColor=none;" vertex="1" parent="1">
          <mxGeometry x="65" y="1940" width="80" height="30" as="geometry" />
        </mxCell>
        <mxCell id="7G_IvZ2n9mC5iAlq--vm-525" value="tag: 32 bits - 2 byte offset bits - n block offset bits - m bits index" style="text;html=1;align=center;verticalAlign=middle;resizable=0;points=[];autosize=1;strokeColor=none;fillColor=none;" vertex="1" parent="1">
          <mxGeometry x="65" y="1980" width="360" height="30" as="geometry" />
        </mxCell>
        <mxCell id="7G_IvZ2n9mC5iAlq--vm-526" value="data: 128 bits =&amp;gt; 4 words =&amp;gt; n = 2" style="text;html=1;align=center;verticalAlign=middle;resizable=0;points=[];autosize=1;strokeColor=none;fillColor=none;" vertex="1" parent="1">
          <mxGeometry x="65" y="2020" width="210" height="30" as="geometry" />
        </mxCell>
        <mxCell id="7G_IvZ2n9mC5iAlq--vm-527" value="index: m bits" style="text;html=1;align=center;verticalAlign=middle;resizable=0;points=[];autosize=1;strokeColor=none;fillColor=none;" vertex="1" parent="1">
          <mxGeometry x="70" y="2060" width="90" height="30" as="geometry" />
        </mxCell>
      </root>
    </mxGraphModel>
  </diagram>
</mxfile>
